<?xml version="1.0" encoding="utf-8"?>
<!-- Generator: Adobe Illustrator 27.8.1, SVG Export Plug-In . SVG Version: 6.00 Build 0)  -->
<svg version="1.1" xmlns="http://www.w3.org/2000/svg" xmlns:xlink="http://www.w3.org/1999/xlink" x="0px" y="0px"
	 viewBox="0 0 669 730.8" style="enable-background:new 0 0 669 730.8;" xml:space="preserve">
<style type="text/css">
	.st0{display:none;}
	.st1{fill:#24297B;}
	.st2{fill:#999999;}
	.st3{fill:#666666;}
	.st4{fill:#FFFFFF;}
	.st5{fill-rule:evenodd;clip-rule:evenodd;}
	.st6{fill:#CC9932;}
	.st7{fill-rule:evenodd;clip-rule:evenodd;fill:#CC9932;}
</style>
<g id="repères" class="st0">
</g>
<g id="Fond">
	<g>
		<path class="st1" d="M570.1,66.9v430.9c0,181.2-142.6,130.6-235.9,229.6c-93.4-99-235.9-48.4-235.9-229.6V66.9H570.1z"/>
		<path d="M334.2,730.6l-1.6-1.7c-15.3-16.2-33.3-29.8-55.1-41.6c-19.3-10.4-39.1-18.2-58.2-25.7c-32.7-12.8-63.5-24.9-86.1-48.2
			c-12.1-12.5-21-27.3-27.1-45.1c-3.3-9.6-5.7-20.2-7.4-31.6c-1.7-11.8-2.6-25-2.6-39V64.7h476.2v433.1c0,14-0.9,27.1-2.6,39
			c-1.6,11.4-4.1,22-7.4,31.6c-6.1,17.8-14.9,32.6-27.1,45.1c-22.6,23.3-53.5,35.4-86.1,48.2c-19.1,7.5-38.9,15.2-58.2,25.7
			c-21.8,11.8-39.8,25.4-55.1,41.6L334.2,730.6z M100.5,69.1v428.7c0,13.8,0.9,26.7,2.5,38.4c1.6,11.1,4,21.5,7.2,30.8
			c5.9,17.2,14.4,31.4,26.1,43.5c22,22.7,52.4,34.6,84.6,47.2c19.3,7.5,39.2,15.3,58.7,25.9c21.5,11.6,39.3,24.9,54.6,40.8
			c15.3-15.8,33.2-29.2,54.6-40.8c19.5-10.6,39.5-18.4,58.7-25.9c32.2-12.6,62.6-24.5,84.6-47.2c11.7-12,20.2-26.3,26.1-43.5
			c3.2-9.3,5.6-19.6,7.2-30.8c1.7-11.6,2.5-24.5,2.5-38.4V69.1H100.5z"/>
	</g>
	<g id="Haut">
		<g>
			<polygon class="st2" points="334.2,42.6 334.2,42.6 80,42.6 98.3,75.2 334.2,75.2 334.2,75.2 570.1,75.2 588.5,42.6 			"/>
			<path d="M570.1,77.4H98.3c-0.8,0-1.5-0.4-1.9-1.1L78,43.6c-0.4-0.7-0.4-1.5,0-2.2c0.4-0.7,1.1-1.1,1.9-1.1h508.5
				c0.8,0,1.5,0.4,1.9,1.1c0.4,0.7,0.4,1.5,0,2.2l-18.3,32.7C571.7,77,570.9,77.4,570.1,77.4z M99.6,73h469.3l15.9-28.3h-501
				L99.6,73z"/>
		</g>
		<g id="Calque_6">
			<g>
				<polygon class="st2" points="588.5,22.4 588.5,2.2 512.3,2.2 512.3,22.4 480.4,22.4 480.4,2.2 404.2,2.2 404.2,22.4 372.3,22.4 
					372.3,2.2 296.1,2.2 296.1,22.4 264.2,22.4 264.2,2.2 188,2.2 188,22.4 156.2,22.4 156.2,2.2 80,2.2 80,22.4 80,42.6 
					156.2,42.6 188,42.6 264.2,42.6 296.1,42.6 334.2,42.6 334.2,42.6 372.3,42.6 404.2,42.6 480.4,42.6 512.3,42.6 588.5,42.6 
					588.5,42.6 588.5,22.4 				"/>
				<path d="M588.5,44.8H80c-1.2,0-2.2-1-2.2-2.2V2.2c0-1.2,1-2.2,2.2-2.2h76.2c1.2,0,2.2,1,2.2,2.2v18h27.5v-18
					c0-1.2,1-2.2,2.2-2.2h76.2c1.2,0,2.2,1,2.2,2.2v18h27.5v-18c0-1.2,1-2.2,2.2-2.2h76.2c1.2,0,2.2,1,2.2,2.2v18H402v-18
					c0-1.2,1-2.2,2.2-2.2h76.2c1.2,0,2.2,1,2.2,2.2v18h27.5v-18c0-1.2,1-2.2,2.2-2.2h76.2c1.2,0,2.2,1,2.2,2.2v40.3
					C590.7,43.8,589.7,44.8,588.5,44.8z M82.1,40.4h504.1V4.4h-71.8v18c0,1.2-1,2.2-2.2,2.2h-31.9c-1.2,0-2.2-1-2.2-2.2v-18h-71.8
					v18c0,1.2-1,2.2-2.2,2.2h-31.9c-1.2,0-2.2-1-2.2-2.2v-18h-71.8v18c0,1.2-1,2.2-2.2,2.2h-31.9c-1.2,0-2.2-1-2.2-2.2v-18h-71.8v18
					c0,1.2-1,2.2-2.2,2.2h-31.9c-1.2,0-2.2-1-2.2-2.2v-18H82.1V40.4z"/>
			</g>
			<g>
				<rect x="106.2" y="11.1" class="st3" width="23.8" height="22.6"/>
				<path d="M129.9,35.9h-23.8c-1.2,0-2.2-1-2.2-2.2V11.1c0-1.2,1-2.2,2.2-2.2h23.8c1.2,0,2.2,1,2.2,2.2v22.6
					C132.1,34.9,131.1,35.9,129.9,35.9z M108.4,31.5h19.4V13.3h-19.4V31.5z"/>
			</g>
			<g>
				<rect x="214.3" y="11.1" class="st3" width="23.8" height="22.6"/>
				<path d="M238,35.9h-23.8c-1.2,0-2.2-1-2.2-2.2V11.1c0-1.2,1-2.2,2.2-2.2H238c1.2,0,2.2,1,2.2,2.2v22.6
					C240.2,34.9,239.2,35.9,238,35.9z M216.4,31.5h19.4V13.3h-19.4V31.5z"/>
			</g>
			<g>
				<rect x="538.5" y="11.1" class="st3" width="23.8" height="22.6"/>
				<path d="M562.2,35.9h-23.8c-1.2,0-2.2-1-2.2-2.2V11.1c0-1.2,1-2.2,2.2-2.2h23.8c1.2,0,2.2,1,2.2,2.2v22.6
					C564.4,34.9,563.5,35.9,562.2,35.9z M540.7,31.5H560V13.3h-19.4V31.5z"/>
			</g>
			<g>
				<rect x="430.4" y="11.1" class="st3" width="23.8" height="22.6"/>
				<path d="M454.2,35.9h-23.8c-1.2,0-2.2-1-2.2-2.2V11.1c0-1.2,1-2.2,2.2-2.2h23.8c1.2,0,2.2,1,2.2,2.2v22.6
					C456.4,34.9,455.4,35.9,454.2,35.9z M432.6,31.5H452V13.3h-19.4V31.5z"/>
			</g>
			<g>
				<polygon class="st3" points="322.3,11.1 322.3,11.1 322.3,33.7 322.3,33.7 346.1,33.7 346.1,11.1 				"/>
				<path d="M346.1,35.9h-23.8c-1.2,0-2.2-1-2.2-2.2V11.1c0-1.2,1-2.2,2.2-2.2h23.8c1.2,0,2.2,1,2.2,2.2v22.6
					C348.3,34.9,347.3,35.9,346.1,35.9z M324.5,31.5h19.4V13.3h-19.4V31.5z"/>
			</g>
		</g>
	</g>
</g>
<g id="Ancres">
	<g>
		<path class="st2" d="M503.2,565.7l-37,5.5c-20.8,16.6,3.3,32.4-111.3,75.1c-10,4.3-11.5,6.5-20.7,14.1
			c-9.1-7.6-10.7-9.8-20.7-14.1c-114.6-42.8-90.5-58.5-111.3-75.1l-37-5.5c-3.2-47.8,3.3-92.2,22.9-113.2
			c14.8,36.7,31.9,66.5,50.8,78.2c-45.2,55.9,81.3,112.5,68.5,4.9h53.4c-12.8,107.7,113.7,51,68.5-4.9c19-11.8,36-41.6,50.8-78.2
			C499.9,473.5,506.3,517.9,503.2,565.7z"/>
		<path d="M480.3,452.5c19.6,21,26,65.4,22.9,113.2l-37,5.5c-20.8,16.6,3.3,32.4-111.3,75.1c-10,4.3-11.5,6.5-20.7,14.1
			c-9.1-7.6-10.7-9.8-20.7-14.1c-114.6-42.8-90.5-58.5-111.3-75.1l-37-5.5c-3.2-47.8,3.3-92.2,22.9-113.2
			c14.8,36.7,31.9,66.5,50.8,78.2c-26.5,32.8,6.1,65.8,35,65.8c20.4,0,38.9-16.4,33.6-60.9h53.4c-5.3,44.5,13.2,60.9,33.6,60.9
			c28.9,0,61.4-33,35-65.8C448.4,519,465.5,489.2,480.3,452.5 M189.6,444.5l-4.7,5c-5.1,5.5-9.5,12.6-13.1,21.1
			c-3.3,8-6,17.2-8,27.6c-1.8,9.8-3,20.7-3.5,32.4c-0.5,11.2-0.3,23.1,0.5,35.4l0.2,3.5l3.5,0.5l35.8,5.3c4.2,3.6,6.1,7.1,8.5,11.4
			c1.9,3.4,4,7.2,7.4,11.5c3.9,4.8,8.9,9.4,15.4,14c16.2,11.5,42.4,24,80.2,38.1c7.5,3.2,9.6,5,15.2,9.8c1.2,1,2.6,2.2,4.3,3.6
			l2.8,2.3l2.8-2.3c1.6-1.4,3-2.5,4.3-3.6c5.6-4.8,7.7-6.6,15.2-9.8c37.8-14.1,64-26.6,80.2-38.1c6.5-4.6,11.5-9.2,15.4-14
			c3.5-4.3,5.6-8.1,7.4-11.5c2.4-4.4,4.3-7.9,8.5-11.4l35.8-5.3l3.5-0.5l0.2-3.5c0.8-12.3,1-24.2,0.5-35.4
			c-0.5-11.6-1.7-22.5-3.5-32.4c-1.9-10.4-4.6-19.7-8-27.6c-3.6-8.5-8-15.6-13.1-21.1l-4.7-5l-2.6,6.4
			c-7.8,19.2-15.7,35.3-23.5,47.8c-8.6,13.6-17.2,23.2-25.6,28.4l-4.2,2.6l3.1,3.9c4.9,6.1,7.8,12.4,8.6,18.7
			c0.7,5.6-0.2,11.2-2.8,16.5c-3.1,6.6-8.7,12.5-15.6,16.8c-6.8,4.2-14.6,6.6-21.8,6.6c-5.8,0-14-1.5-20.4-8.8
			c-8.3-9.4-11.4-25.7-8.8-47.3l0.6-4.9h-4.9h-53.4h-4.9l0.6,4.9c2.6,21.5-0.5,37.9-8.8,47.3c-6.4,7.2-14.6,8.8-20.4,8.8
			c-7.2,0-14.9-2.3-21.8-6.6c-6.9-4.3-12.4-10.3-15.6-16.8c-2.6-5.4-3.5-10.9-2.8-16.5c0.8-6.3,3.7-12.6,8.6-18.7l3.1-3.9l-4.2-2.6
			c-8.4-5.2-17-14.8-25.6-28.4c-7.8-12.5-15.8-28.5-23.5-47.8L189.6,444.5L189.6,444.5z"/>
	</g>
</g>
<g id="Calque_14">
	<g id="suspente">
		<path d="M334.3,551c-0.8,0-1.5-0.4-1.9-1.1L163.1,241.1c-0.6-1.1-0.2-2.4,0.9-3c1.1-0.6,2.4-0.2,3,0.9l169.3,308.8
			c0.6,1.1,0.2,2.4-0.9,3C335,550.9,334.7,551,334.3,551z"/>
		<path d="M334.3,551c-0.9,0-1.7-0.5-2-1.4L210.5,240.8c-0.4-1.1,0.1-2.4,1.2-2.8c1.1-0.4,2.4,0.1,2.8,1.2L336.4,548
			c0.4,1.1-0.1,2.4-1.2,2.8C334.9,551,334.6,551,334.3,551z"/>
		<path d="M334.3,551c-1,0-1.9-0.7-2.1-1.7L258,240.5c-0.3-1.2,0.4-2.4,1.6-2.6c1.2-0.3,2.4,0.4,2.6,1.6l74.2,308.8
			c0.3,1.2-0.4,2.4-1.6,2.6C334.7,551,334.5,551,334.3,551z"/>
		<path d="M334.3,551c-1.1,0-2.1-0.9-2.2-2l-26.7-308.8c-0.1-1.2,0.8-2.3,2-2.4c1.2-0.1,2.3,0.8,2.4,2l26.7,308.8
			c0.1,1.2-0.8,2.3-2,2.4C334.5,551,334.4,551,334.3,551z"/>
		<path d="M334.3,551c-0.4,0-0.7-0.1-1.1-0.3c-1.1-0.6-1.5-1.9-0.9-3L501.7,239c0.6-1.1,1.9-1.5,3-0.9c1.1,0.6,1.5,1.9,0.9,3
			L336.3,549.9C335.9,550.6,335.1,551,334.3,551z"/>
		<path d="M334.3,551c-0.3,0-0.5,0-0.8-0.2c-1.1-0.4-1.7-1.7-1.2-2.8l121.8-308.8c0.4-1.1,1.7-1.7,2.8-1.2c1.1,0.4,1.7,1.7,1.2,2.8
			L336.4,549.6C336,550.5,335.2,551,334.3,551z"/>
		<path d="M334.3,551c-0.2,0-0.3,0-0.5-0.1c-1.2-0.3-1.9-1.5-1.6-2.6l74.2-308.8c0.3-1.2,1.5-1.9,2.6-1.6c1.2,0.3,1.9,1.5,1.6,2.6
			l-74.2,308.8C336.2,550.3,335.3,551,334.3,551z"/>
		<path d="M334.3,551c-0.1,0-0.1,0-0.2,0c-1.2-0.1-2.1-1.2-2-2.4l26.7-308.8c0.1-1.2,1.2-2.1,2.4-2c1.2,0.1,2.1,1.2,2,2.4L336.5,549
			C336.4,550.2,335.5,551,334.3,551z"/>
	</g>
	<g>
		<path id="voile_00000083808980381887757930000006861708081598260616_" class="st4" d="M503.4,240c-15.8-19.8-31.6-19.8-47.6,0
			c-15.8-19.9-31.7-19.9-47.6,0c-15.9-20-31.7-20-47.6,0c-17.7-20-35.4-19.9-53.1,0c-15.9-20-31.7-20-47.6,0
			c-15.9-19.9-31.7-19.9-47.6,0c-15.9-19.8-31.8-19.8-47.6,0c0,0,19.3-134.7,169.2-134.7C484.1,105.4,503.4,240,503.4,240z"/>
		<path id="voile_00000073715905229878863370000015055317765147998377_" d="M334.2,105.4c149.9,0,169.2,134.7,169.2,134.7
			c-7.9-9.9-15.8-14.9-23.7-14.9c-7.9,0-15.9,5-23.8,14.9c-7.9-10-15.8-15-23.8-15c-7.9,0-15.9,5-23.8,15c-7.9-10-15.9-15-23.8-15
			c-7.9,0-15.9,5-23.8,15c-8.9-10-17.7-15-26.6-15c-8.9,0-17.7,5-26.5,15c-7.9-10-15.9-15-23.8-15c-7.9,0-15.9,5-23.8,15
			c-7.9-10-15.9-15-23.8-15c-7.9,0-15.9,5-23.8,15c-8-9.9-15.9-14.9-23.8-14.9c-7.9,0-15.8,5-23.7,14.9
			C165,240,184.3,105.4,334.2,105.4 M334.2,101c-18.2,0-35.5,2-51.4,5.9c-14.5,3.6-28.1,8.9-40.4,15.7
			c-20.8,11.5-38.5,27.5-52.6,47.6c-5.5,7.9-10.5,16.4-14.7,25.3c-3.4,7.1-6.4,14.6-8.9,22.1c-4.2,12.8-5.5,21.4-5.5,21.8l-2.3,16
			l10.1-12.7c3.6-4.5,7.2-8,10.7-10.2c3.3-2.1,6.4-3,9.5-3c6.5,0,13.4,4.5,20.4,13.2l3.4,4.3l3.4-4.3c3.6-4.6,7.3-8,10.8-10.2
			c3.3-2.1,6.4-3.1,9.6-3.1c3.1,0,6.3,1,9.6,3.1c3.5,2.2,7.2,5.7,10.8,10.2l3.4,4.3l3.4-4.3c3.6-4.6,7.3-8,10.8-10.2
			c3.3-2.1,6.4-3.1,9.6-3.1c6.5,0,13.3,4.5,20.3,13.3l3.3,4.1l3.5-3.9c4.1-4.6,8.2-8.1,12.1-10.3c3.7-2.1,7.5-3.2,11.1-3.2
			c3.6,0,7.4,1.1,11.1,3.2c4,2.2,8.1,5.7,12.2,10.3l3.5,3.9l3.2-4.1c3.6-4.6,7.3-8,10.8-10.2c3.3-2.1,6.4-3.1,9.6-3.1
			c3.1,0,6.3,1,9.6,3.1c3.5,2.2,7.2,5.7,10.8,10.2l3.4,4.3l3.4-4.3c3.6-4.6,7.3-8,10.8-10.2c3.3-2.1,6.4-3.1,9.6-3.1
			c3.1,0,6.3,1,9.6,3.1c3.5,2.2,7.2,5.7,10.8,10.2l3.4,4.3l3.4-4.3c3.7-4.6,7.3-8,10.8-10.2c3.3-2.1,6.4-3.1,9.6-3.1
			c3.2,0,6.3,1,9.5,3c3.5,2.2,7.1,5.6,10.7,10.2l10.1,12.7l-2.3-16c-0.1-0.4-1.3-8.9-5.5-21.8c-2.5-7.5-5.4-14.9-8.9-22.1
			c-4.3-8.9-9.2-17.5-14.7-25.3c-14.1-20.1-31.8-36.1-52.6-47.6c-12.4-6.8-26-12.1-40.4-15.7C369.7,103,352.4,101,334.2,101
			L334.2,101z"/>
	</g>
	<g id="aeration">
		<path class="st5" d="M215.4,230.8c4.7-54.5,37.1-98.6,77.3-112.9c-31.6,20-59,61.2-63.7,88.1l14-3.5
			C236.1,206.7,226.9,216.1,215.4,230.8z"/>
		<path class="st5" d="M261,223.4c4.1-47.6,17.6-84.9,48.1-105.4c-20.6,20.1-35.6,57.5-36.2,83.7l12.2-3.1
			C279.1,202.3,271.1,210.5,261,223.4z"/>
		<path class="st5" d="M302.2,216.4c3.4-39.5,2.9-64.9,20-94.8c-9.7,25.3-12,56-10.1,76.8l10.1-2.5
			C317.2,198.9,310.6,205.7,302.2,216.4z"/>
		<path class="st5" d="M452.2,230.8c-4.7-54.5-37.1-98.6-77.3-112.9c31.6,20,59,61.2,63.7,88.1l-14-3.5
			C431.5,206.7,440.7,216.1,452.2,230.8z"/>
		<path class="st5" d="M406.7,223.4c-4.1-47.6-17.6-84.9-48.1-105.4c20.6,20.1,35.6,57.5,36.2,83.7l-12.2-3.1
			C388.5,202.3,396.6,210.5,406.7,223.4z"/>
		<path class="st5" d="M365.4,216.4c-3.4-39.5-2.9-64.9-20-94.8c9.7,25.3,12,56,10.1,76.8l-10.1-2.5
			C350.4,198.9,357,205.7,365.4,216.4z"/>
	</g>
</g>
<g id="Ailes_00000028317404076328437550000003264026501480010406_">
	<g id="droite">
		<g>
			<path class="st2" d="M490.8,342.4h120.5c17.2-4.6,25.1-14.1,25.1-21.8H504.9C500.4,328.4,495.7,335.7,490.8,342.4z"/>
			<path d="M636.4,320.7c0,7.6-7.9,17.2-25.1,21.8H490.8c4.9-6.7,9.6-14,14-21.8H636.4 M640.8,316.3h-4.4H504.9h-2.6l-1.3,2.2
				c-4.3,7.6-9,14.8-13.7,21.3l-5.1,7h8.7h120.5h0.6l0.6-0.1c8.6-2.3,15.9-6,20.9-10.8c4.8-4.6,7.5-10,7.5-15.2V316.3L640.8,316.3z"
				/>
		</g>
		<g>
			<path class="st2" d="M469.7,366.5c-1.3,1.2-2.7,2.5-4,3.7h117.9c17.2-4.6,25.1-14.1,25.1-21.8H486.3
				C481,355,475.4,361.1,469.7,366.5z"/>
			<path d="M608.6,348.4c0,7.6-7.9,17.2-25.1,21.8H465.6c1.4-1.2,2.7-2.4,4-3.7c5.8-5.4,11.3-11.5,16.6-18.1H608.6 M613,344h-4.4
				H486.3h-2.1l-1.3,1.7c-5.1,6.4-10.6,12.4-16.2,17.7c-1.3,1.2-2.6,2.4-3.9,3.6l-8.8,7.7h11.7h117.9h0.6l0.6-0.1
				c8.6-2.3,15.9-6,20.9-10.8c4.8-4.6,7.5-10,7.5-15.2V344L613,344z"/>
		</g>
		<g>
			<path class="st2" d="M448.8,383c-7,4.5-14.4,8.5-22.1,11.8l-4.8,2.1l-1.7-5l-0.2-0.5l-2.9,6.6h136.4
				c17.2-4.6,25.1-14.1,25.1-21.8l-120.1,0C455.3,378.6,452,380.8,448.8,383z"/>
			<path d="M458.4,376.1l120.1,0c0,7.6-7.9,17.2-25.1,21.8H417l2.9-6.6l0.2,0.5l1.7,5l4.8-2.1c7.7-3.3,15.2-7.2,22.1-11.8
				C452,380.8,455.3,378.6,458.4,376.1 M458.4,371.8h-1.5l-1.2,0.9c-3,2.3-6.2,4.6-9.3,6.6c-6.7,4.4-14,8.2-21.4,11.4l-0.5,0.2
				l-0.2-0.5l-0.2-0.5l-3.6-10.7l-4.5,10.3l-2.9,6.6l-2.7,6.2h6.7h136.4h0.6l0.6-0.1c8.6-2.3,15.9-6,20.9-10.8
				c4.8-4.6,7.5-10,7.5-15.2v-4.4h-4.4L458.4,371.8L458.4,371.8z"/>
		</g>
		<g>
			<path class="st2" d="M663.9,293.1H483.9c-16.8,34.7-34.6,59.3-69.1,67.7l10,29.5c29.2-12.4,55.7-35.2,77.7-75.4h136.4
				C656,310.3,663.9,300.7,663.9,293.1z"/>
			<path d="M663.9,293.1c0,7.6-7.9,17.2-25.1,21.8H502.5c-22,40.2-48.5,62.9-77.7,75.4l-10-29.5c34.6-8.4,52.3-33,69.1-67.7H663.9
				 M668.3,288.7h-4.4H483.9h-2.7l-1.2,2.5c-4.5,9.4-8.7,17.1-12.8,23.6c-4.7,7.5-9.4,13.7-14.3,19c-5.4,5.7-11,10.3-17.2,14
				c-6.6,3.9-13.8,6.8-21.8,8.7l-4.7,1.1l1.5,4.5l10,29.5l1.5,4.5l4.4-1.9c7.7-3.3,15.1-7.2,22-11.7c7.3-4.7,14.3-10.2,20.8-16.4
				c6.8-6.4,13.3-13.7,19.3-21.7c5.8-7.6,11.3-16.1,16.4-25.3h133.8h0.6l0.6-0.1c8.6-2.3,15.9-6,20.9-10.8c4.8-4.6,7.5-10,7.5-15.2
				V288.7L668.3,288.7z"/>
		</g>
	</g>
	<g id="gauche">
		<g>
			<path class="st2" d="M177.6,342.4H57.1c-17.2-4.6-25.1-14.1-25.1-21.8h131.5C168,328.4,172.7,335.7,177.6,342.4z"/>
			<path d="M163.6,320.7c4.4,7.8,9.1,15.1,14,21.8H57.1c-17.2-4.6-25.1-14.1-25.1-21.8H163.6 M166.1,316.3h-2.6H32.1h-4.4v4.4
				c0,5.2,2.6,10.7,7.5,15.2c5,4.8,12.2,8.5,20.9,10.8l0.6,0.1h0.6h120.5h8.7l-5.1-7c-4.8-6.5-9.4-13.7-13.7-21.3L166.1,316.3
				L166.1,316.3z"/>
		</g>
		<g>
			<path class="st2" d="M198.7,366.5c1.3,1.2,2.7,2.5,4,3.7H84.9c-17.2-4.6-25.1-14.1-25.1-21.8h122.4
				C187.4,355,193,361.1,198.7,366.5z"/>
			<path d="M182.2,348.4c5.2,6.6,10.8,12.7,16.6,18.1c1.3,1.2,2.7,2.5,4,3.7H84.9c-17.2-4.6-25.1-14.1-25.1-21.8H182.2 M184.3,344
				h-2.1H59.8h-4.4v4.4c0,5.2,2.6,10.7,7.5,15.2c5,4.8,12.2,8.5,20.9,10.8l0.6,0.1h0.6h117.9h11.7l-8.8-7.7
				c-1.3-1.2-2.7-2.4-3.9-3.6c-5.6-5.3-11-11.2-16.2-17.7L184.3,344L184.3,344z"/>
		</g>
		<g>
			<path class="st2" d="M219.6,383c7,4.5,14.4,8.5,22.1,11.8l4.8,2.1l1.7-5l0.2-0.5l2.9,6.6H115c-17.2-4.6-25.1-14.1-25.1-21.8
				l120.1,0C213.2,378.6,216.4,380.8,219.6,383z"/>
			<path d="M210,376.1c3.1,2.4,6.3,4.7,9.6,6.8c7,4.5,14.4,8.5,22.1,11.8l4.8,2.1l1.7-5l0.2-0.5l2.9,6.6H115
				c-17.2-4.6-25.1-14.1-25.1-21.8L210,376.1 M211.5,371.8H210l-120.1,0h-4.4v4.4c0,5.2,2.6,10.7,7.5,15.2c5,4.8,12.2,8.5,20.9,10.8
				l0.6,0.1h0.6h136.4h6.7l-2.7-6.2l-2.9-6.6l-4.5-10.3l-3.6,10.7l-0.2,0.5l-0.2,0.5l-0.5-0.2c-7.5-3.2-14.7-7-21.4-11.4
				c-3.1-2-6.3-4.3-9.3-6.6L211.5,371.8L211.5,371.8z"/>
		</g>
		<g>
			<path class="st2" d="M4.5,293.1h180.1c16.8,34.7,34.6,59.3,69.1,67.7l-10,29.5c-29.2-12.4-55.7-35.2-77.7-75.4H29.5
				C12.4,310.3,4.5,300.7,4.5,293.1z"/>
			<path d="M184.5,293.1c16.8,34.7,34.6,59.3,69.1,67.7l-10,29.5c-29.2-12.4-55.7-35.2-77.7-75.4H29.5
				c-17.2-4.6-25.1-14.1-25.1-21.8H184.5 M187.3,288.7h-2.7H4.5H0.1v4.4c0,5.2,2.6,10.7,7.5,15.2c5,4.8,12.2,8.5,20.9,10.8l0.6,0.1
				h0.6h133.8c5.1,9.1,10.6,17.6,16.4,25.3c6,8,12.5,15.3,19.3,21.7c6.5,6.1,13.5,11.7,20.8,16.4c6.9,4.5,14.3,8.4,22,11.7l4.4,1.9
				l1.5-4.5l10-29.5l1.5-4.5l-4.7-1.1c-8.1-2-15.2-4.8-21.8-8.7c-6.2-3.7-11.9-8.3-17.2-14c-5-5.3-9.7-11.5-14.3-19
				c-4.1-6.5-8.3-14.3-12.8-23.6L187.3,288.7L187.3,288.7z"/>
		</g>
	</g>
</g>
<g id="Chevalier">
	<g id="Buste">
		<g id="epaules">
			<g>
				<path id="droite_00000021819601473594524360000007466959532478887081_" d="M432.3,439.7c6.9,0.7,11.7-4.3,11.4-10.6
					c-13.2-29.1-22.1-60.6-26.7-94.7c-3.7-1.3-9.8-0.3-14.5,2.7l-7.9,63.1L432.3,439.7z"/>
				<path d="M433.6,442.6c-0.5,0-1,0-1.5-0.1l-1.1-0.1l-39.3-41.2l8.2-65.8l1.1-0.7c5.2-3.4,12.3-4.7,17-3l1.7,0.6l0.2,1.8
					c2.3,16.8,5.7,33.2,10.1,48.8c4.4,15.5,9.9,30.7,16.4,45.1l0.2,0.5l0,0.6c0.2,3.9-1.3,7.7-3.9,10.2
					C440.3,441.4,437.1,442.6,433.6,442.6z M397.7,399.2l35.9,37.6c2,0,3.8-0.7,5.1-1.9c1.4-1.3,2.1-3.2,2.2-5.3
					c-6.5-14.5-12-29.7-16.5-45.3c-4.3-15.2-7.6-31.2-10-47.6c-2.9-0.3-6.5,0.7-9.2,2.1L397.7,399.2z"/>
			</g>
			<g>
				<path id="gauche_00000018233750863305581240000001274435112098334351_" d="M236.3,439.7c-6.9,0.7-11.7-4.3-11.4-10.6
					c13.2-29.1,22.1-60.6,26.7-94.7c3.7-1.3,9.8-0.3,14.5,2.7l7.9,63.1L236.3,439.7z"/>
				<path d="M235.1,442.6c-3.5,0-6.7-1.2-9.1-3.5c-2.7-2.5-4.1-6.3-3.9-10.2l0-0.6l0.2-0.5c6.5-14.4,12-29.5,16.4-45.1
					c4.4-15.6,7.8-32,10.1-48.8l0.2-1.8l1.7-0.6c4.7-1.6,11.8-0.3,17,3l1.1,0.7l8.2,65.8l-39.3,41.2l-1.1,0.1
					C236.1,442.6,235.6,442.6,235.1,442.6z M227.8,429.7c0,2.1,0.8,3.9,2.2,5.3c1.3,1.2,3.1,1.9,5.1,1.9l35.9-37.6l-7.5-60.4
					c-2.7-1.4-6.3-2.4-9.2-2.1c-2.3,16.4-5.7,32.4-10,47.6C239.8,400,234.3,415.2,227.8,429.7z"/>
			</g>
		</g>
		<g>
			<path id="fond_00000137092578525153509670000007397143852703933628_" class="st6" d="M334.3,430.1l-73.9,44.8v76.8
				c43.7,10.4,92.3,11.7,147.8,0v-19.6c-12.9-5.5-14.5-10.9,0-16.1v-41.1L334.3,430.1z"/>
			<path d="M332.1,562.2c-0.7,0-1.4,0-2.2,0c-23.8-0.2-47.3-3-70-8.3l-1.7-0.4v-79.7l76.1-46.2l76.1,46.2v43.8l-1.4,0.5
				c-8.3,3-8.8,5.3-8.8,5.7c0,0.4,0.4,2.7,8.9,6.4l1.3,0.6v22.8l-1.7,0.4C382.4,559.4,356.7,562.2,332.1,562.2z M262.6,550
				c21.8,5,44.4,7.7,67.3,7.8c24.4,0.2,50-2.5,76.1-7.9v-16.4c-7.1-3.2-10.4-6.4-10.3-9.9c0.1-3.5,3.4-6.4,10.3-9.1v-38.3
				l-71.7-43.5l-71.7,43.5V550z"/>
		</g>
		<g>
			<path id="bas_00000160162267720880979410000017859258366061124009_" class="st6" d="M403.2,509.4c-0.2-0.4,1.5,10.1,9.5,27.5
				c-17.8,4.6-78.4,12.1-78.4,12.1s-60.6-7.4-78.4-12.1c8-17.4,9.7-27.9,9.5-27.5"/>
			<path d="M334.3,551.1c-0.1,0-0.2,0-0.3,0c-2.5-0.3-61-7.5-78.7-12.1c-0.6-0.2-1.2-0.6-1.4-1.2c-0.3-0.6-0.3-1.3,0-1.9
				c7.8-16.9,9.3-26.6,9.3-26.7c-0.1,0.7,0.4,1.8,1.6,2.2c1,0.3,2.1-0.1,2.5-1.1l-3.9-2.1c0.6-1.1,1.9-1.5,2.9-0.9
				c0.3,0.2,1.3,0.8,1.2,2.3c0,0.1,0,0.3-0.1,0.5c-0.1,0.4-0.2,1-0.3,1.6c-0.2,1.1-0.7,3-1.5,5.6c-1.2,3.9-3.3,10.1-6.7,18
				c19.3,4.4,71.1,10.8,75.3,11.3c4.2-0.5,55.9-7,75.3-11.3c-3.5-7.8-5.6-14-6.7-18c-0.8-2.6-1.2-4.5-1.5-5.6
				c-0.1-0.6-0.2-1.1-0.3-1.6c0-0.2-0.1-0.4-0.1-0.5c-0.1-1.5,0.9-2.1,1.2-2.3c1.1-0.5,2.4-0.1,2.9,0.9l-3.9,2.1
				c0.5,0.9,1.6,1.4,2.5,1.1c1.2-0.4,1.6-1.5,1.6-2.2c0,0.1,1.5,9.7,9.3,26.7c0.3,0.6,0.3,1.3,0,1.9s-0.8,1-1.4,1.2
				c-17.7,4.6-76.2,11.8-78.7,12.1C334.5,551.1,334.4,551.1,334.3,551.1z"/>
		</g>
		<g>
			<path id="haut_00000114776478635582182130000008794071953088999852_" class="st6" d="M259,496.6c12.1-3.8,24.6-10.3,37.2-19.2
				c12-8.5,24.5-19.4,37.3-32.7c0,0,0.1-0.1,0.1-0.1c0.2-0.2,0.5-0.3,0.8-0.3c0,0,0,0,0,0c0,0,0,0,0,0c0.3,0,0.6,0.1,0.8,0.3
				c0,0,0.1,0.1,0.1,0.1c12.7,13.2,25.2,24.2,37.3,32.7c12.6,8.9,25.1,15.3,37.2,19.2c5.8-18.9,13.7-36.3,25.1-56.9
				c-13-20.4-34.5-85.3-25.8-103.9c-25.7,4.6-53.4,2.6-74.6,0c0,0,0,0,0,0c0,0,0,0,0,0c-21.2,2.6-48.9,4.6-74.6,0
				c8.7,18.6-12.8,83.5-25.8,103.9C245.3,460.3,253.2,477.7,259,496.6z"/>
			<path id="haut_00000134939813207271635350000000284376896058389915_" d="M409,335.7c-8.7,18.6,12.8,83.5,25.8,103.9
				c-11.4,20.6-19.3,38-25.1,56.9c-12.1-3.8-24.6-10.3-37.2-19.2c-12-8.5-24.5-19.4-37.3-32.7c0,0-0.1-0.1-0.1-0.1
				c-0.2-0.2-0.5-0.3-0.8-0.3c0,0,0,0,0,0c0,0,0,0,0,0c-0.3,0-0.5,0.1-0.8,0.3c0,0-0.1,0.1-0.1,0.1c-12.7,13.2-25.2,24.2-37.3,32.7
				c-12.6,8.9-25.1,15.3-37.2,19.2c-5.8-18.9-13.7-36.3-25.1-56.9c13-20.4,34.5-85.3,25.8-103.9c11.1,2,22.6,2.7,33.8,2.7
				c14.7,0,28.8-1.3,40.9-2.7c0,0,0,0,0,0c0,0,0,0,0,0c12.1,1.5,26.2,2.7,40.9,2.7C386.4,338.5,397.9,337.7,409,335.7 M409,331.3
				c-0.3,0-0.5,0-0.8,0.1c-9.9,1.8-21,2.7-33,2.7c-12.1,0-24.9-0.9-40.2-2.7c-0.2,0-0.4,0-0.6,0c-0.2,0-0.4,0-0.6,0
				c-15.3,1.8-28.1,2.7-40.2,2.7c-12,0-23.1-0.9-33-2.7c-0.3,0-0.5-0.1-0.8-0.1c-1.3,0-2.6,0.6-3.5,1.7c-1,1.3-1.2,3-0.5,4.5
				c1.2,2.5,2.3,7.8,1.1,18.9c-0.9,8.2-3,18.4-6.1,29.4c-5.7,20.2-14.1,41.4-20.5,51.5c-0.9,1.4-0.9,3.1-0.1,4.5
				c5.8,10.5,10.6,19.9,14.5,28.7c4.1,9.2,7.4,18.2,10.2,27.3c0.3,1.1,1.1,2.1,2.2,2.6c0.6,0.3,1.3,0.5,2,0.5c0.4,0,0.9-0.1,1.3-0.2
				c12.5-4,25.4-10.6,38.4-19.8c11.5-8.1,23.5-18.5,35.6-30.9c12.1,12.4,24.1,22.8,35.6,30.9c13,9.1,25.9,15.8,38.4,19.8
				c0.4,0.1,0.9,0.2,1.3,0.2c0.7,0,1.4-0.2,2-0.5c1-0.5,1.8-1.5,2.2-2.6c2.8-9.1,6.1-18.1,10.2-27.3c3.9-8.8,8.6-18.2,14.5-28.7
				c0.8-1.4,0.7-3.1-0.1-4.5c-6.4-10.1-14.8-31.2-20.5-51.5c-3.1-11-5.2-21.1-6.1-29.4c-0.7-6.1-1-14.4,1.1-18.9
				c0.7-1.5,0.5-3.2-0.5-4.5C411.6,332,410.3,331.3,409,331.3L409,331.3z"/>
		</g>
	</g>
	<g id="Harnais_00000093887884551142730680000010212235085014871970_">
		<g>
			<g>
				<path class="st7" d="M377.9,338.5v59.8c-21.6,6.3-43,19.7-43.5,20c0,0,0,0,0,0s0,0,0,0c-0.6-0.4-22-13.7-43.5-20v-59.8h3.6
					c0,35.4,10.5,43.7,39.9,43.7h0c29.4,0,39.9-8.4,39.9-43.7H377.9z"/>
				<path d="M377.9,338.5v59.8c-21.6,6.3-43,19.7-43.5,20c0,0,0,0,0,0c0,0,0,0,0,0c-0.6-0.4-22-13.7-43.5-20v-59.8h3.6
					c0,35.4,10.5,43.7,39.9,43.7h0c29.4,0,39.9-8.4,39.9-43.7H377.9 M377.9,334.1h-3.6c-2.4,0-4.4,2-4.4,4.4
					c0,16.7-2.4,26.6-7.7,32.1c-4.9,5.1-13.2,7.3-27.8,7.3h0c-14.6,0-22.9-2.2-27.8-7.3c-5.3-5.5-7.7-15.4-7.7-32.1
					c0-2.4-2-4.4-4.4-4.4h-3.6c-2.4,0-4.4,2-4.4,4.4v59.8c0,1.9,1.3,3.7,3.2,4.2c20.2,5.9,40.5,18.3,42.3,19.5
					c0.7,0.5,1.6,0.7,2.4,0.7c0.9,0,1.7-0.3,2.4-0.7c1.8-1.1,22.2-13.6,42.3-19.5c1.9-0.5,3.2-2.3,3.2-4.2v-59.8
					C382.3,336,380.3,334.1,377.9,334.1L377.9,334.1z"/>
			</g>
			<g>
				<circle cx="366.5" cy="390.7" r="4.9"/>
				<path d="M366.5,385.9c2.7,0,4.9,2.2,4.9,4.9c0,2.7-2.2,4.9-4.9,4.9c-2.7,0-4.9-2.2-4.9-4.9C361.6,388,363.8,385.9,366.5,385.9
					 M366.5,383.1c-4.2,0-7.6,3.4-7.6,7.6s3.4,7.6,7.6,7.6c4.2,0,7.6-3.4,7.6-7.6S370.6,383.1,366.5,383.1L366.5,383.1z"/>
			</g>
			<g>
				<circle cx="302.2" cy="390.7" r="4.9"/>
				<path d="M302.2,385.9c2.7,0,4.9,2.2,4.9,4.9c0,2.7-2.2,4.9-4.9,4.9c-2.7,0-4.9-2.2-4.9-4.9C297.3,388,299.5,385.9,302.2,385.9
					 M302.2,383.1c-4.2,0-7.6,3.4-7.6,7.6s3.4,7.6,7.6,7.6c4.2,0,7.6-3.4,7.6-7.6S306.4,383.1,302.2,383.1L302.2,383.1z"/>
			</g>
			<g>
				<path d="M339.2,400.4c0,2.7-2.2,4.8-4.8,4.9h0c-2.7,0-4.8-2.2-4.8-4.9c0-2.7,2.2-4.8,4.8-4.9h0
					C337,395.5,339.2,397.7,339.2,400.4z"/>
				<path d="M334.3,395.5c2.7,0,4.8,2.2,4.8,4.9c0,2.7-2.2,4.8-4.8,4.9h0c-2.7,0-4.8-2.2-4.8-4.9
					C329.5,397.7,331.6,395.5,334.3,395.5L334.3,395.5 M334.3,392.8L334.3,392.8L334.3,392.8c-4.2,0-7.6,3.4-7.6,7.6
					s3.4,7.6,7.6,7.6h0c4.2,0,7.6-3.4,7.6-7.6S338.5,392.8,334.3,392.8L334.3,392.8L334.3,392.8z"/>
			</g>
		</g>
		<g>
			<g>
				<path class="st7" d="M398.8,337.3c0,0,0,60.1,0,71c0,10.9-9.3,22-9.3,22s-9.3-11.1-9.3-22c0-10.7,0-69.6,0-69.6
					C386.5,338.5,392.7,338,398.8,337.3z"/>
				<path d="M398.8,337.3c0,0,0,60.1,0,71s-9.3,22-9.3,22s-9.3-11.1-9.3-22c0-10.7,0-69.6,0-69.6C386.5,338.5,392.7,338,398.8,337.3
					 M398.8,333c-0.2,0-0.3,0-0.5,0c-5.8,0.7-11.9,1.1-18.3,1.3c-2.4,0.1-4.2,2-4.2,4.4l0,69.6c0,5.3,1.8,11.1,5.2,17.2
					c2.5,4.4,5,7.5,5.1,7.6c0.8,1,2.1,1.6,3.4,1.6c1.3,0,2.5-0.6,3.4-1.6c0.1-0.1,2.6-3.1,5.1-7.6c3.5-6.2,5.2-12,5.2-17.2v-71
					c0-1.3-0.5-2.4-1.5-3.3C400.9,333.3,399.9,333,398.8,333L398.8,333z"/>
			</g>
			<g>
				<circle cx="389.1" cy="402.2" r="4.9"/>
				<path d="M389.1,397.3c2.7,0,4.9,2.2,4.9,4.9c0,2.7-2.2,4.9-4.9,4.9c-2.7,0-4.9-2.2-4.9-4.9C384.2,399.5,386.4,397.3,389.1,397.3
					 M389.1,394.6c-4.2,0-7.6,3.4-7.6,7.6s3.4,7.6,7.6,7.6c4.2,0,7.6-3.4,7.6-7.6S393.3,394.6,389.1,394.6L389.1,394.6z"/>
			</g>
			<g>
				<circle cx="389.6" cy="383.8" r="4.9"/>
				<path d="M389.6,379c2.7,0,4.9,2.2,4.9,4.9s-2.2,4.9-4.9,4.9c-2.7,0-4.9-2.2-4.9-4.9S386.9,379,389.6,379 M389.6,376.2
					c-4.2,0-7.6,3.4-7.6,7.6c0,4.2,3.4,7.6,7.6,7.6s7.6-3.4,7.6-7.6C397.2,379.7,393.8,376.2,389.6,376.2L389.6,376.2z"/>
			</g>
			<g>
				<circle cx="390" cy="363.9" r="4.9"/>
				<path d="M390,359.1c2.7,0,4.9,2.2,4.9,4.9c0,2.7-2.2,4.9-4.9,4.9s-4.9-2.2-4.9-4.9C385.2,361.3,387.4,359.1,390,359.1
					 M390,356.3c-4.2,0-7.6,3.4-7.6,7.6c0,4.2,3.4,7.6,7.6,7.6c4.2,0,7.6-3.4,7.6-7.6C397.6,359.8,394.2,356.3,390,356.3L390,356.3z
					"/>
			</g>
		</g>
		<g>
			<g>
				<path class="st7" d="M269.8,337.1c0,0,0,60.1,0,71c0,10.9,9.3,22,9.3,22s9.3-11.1,9.3-22c0-7.8,0-69.6,0-69.6
					C282.1,338.2,275.9,337.8,269.8,337.1z"/>
				<path d="M269.8,337.1c6.1,0.7,12.3,1.1,18.7,1.4c0,0,0,61.9,0,69.6c0,10.9-9.3,22-9.3,22s-9.3-11.1-9.3-22
					C269.8,397.2,269.8,337.1,269.8,337.1 M269.8,332.7c-1.1,0-2.1,0.4-2.9,1.1c-0.9,0.8-1.5,2-1.5,3.3v71c0,5.3,1.8,11.1,5.2,17.2
					c2.5,4.4,5,7.5,5.1,7.6c0.8,1,2.1,1.6,3.4,1.6c0,0,0,0,0,0c1.3,0,2.5-0.6,3.4-1.6c0.1-0.1,2.6-3.1,5.1-7.6
					c3.5-6.2,5.2-12,5.2-17.2l0-69.6c0-2.4-1.9-4.3-4.2-4.4c-6.4-0.2-12.5-0.7-18.3-1.3C270.1,332.7,269.9,332.7,269.8,332.7
					L269.8,332.7z"/>
			</g>
			<g>
				<circle cx="279.5" cy="401.9" r="4.9"/>
				<path d="M279.5,397.1c2.7,0,4.9,2.2,4.9,4.9c0,2.7-2.2,4.9-4.9,4.9s-4.9-2.2-4.9-4.9C274.6,399.3,276.8,397.1,279.5,397.1
					 M279.5,394.3c-4.2,0-7.6,3.4-7.6,7.6s3.4,7.6,7.6,7.6c4.2,0,7.6-3.4,7.6-7.6S283.7,394.3,279.5,394.3L279.5,394.3z"/>
			</g>
			<g>
				<circle cx="279" cy="383.6" r="4.9"/>
				<path d="M279,378.7c2.7,0,4.9,2.2,4.9,4.9c0,2.7-2.2,4.9-4.9,4.9s-4.9-2.2-4.9-4.9C274.2,380.9,276.3,378.7,279,378.7 M279,376
					c-4.2,0-7.6,3.4-7.6,7.6c0,4.2,3.4,7.6,7.6,7.6s7.6-3.4,7.6-7.6C286.6,379.4,283.2,376,279,376L279,376z"/>
			</g>
			<g>
				<circle cx="278.6" cy="363.7" r="4.9"/>
				<path d="M278.6,358.8c2.7,0,4.9,2.2,4.9,4.9s-2.2,4.9-4.9,4.9s-4.9-2.2-4.9-4.9S275.9,358.8,278.6,358.8 M278.6,356.1
					c-4.2,0-7.6,3.4-7.6,7.6c0,4.2,3.4,7.6,7.6,7.6c4.2,0,7.6-3.4,7.6-7.6C286.2,359.5,282.8,356.1,278.6,356.1L278.6,356.1z"/>
			</g>
		</g>
	</g>
	<g id="Ceinture_00000165231555131176937220000013503534754415931321_">
		<g>
			<polygon class="st6" points="410.8,522.6 265.9,522.6 267.4,509.4 409.3,509.4 			"/>
			<path d="M410.8,524.8H265.9c-0.6,0-1.2-0.3-1.6-0.7c-0.4-0.5-0.6-1.1-0.5-1.7l1.5-13.2c0.1-1.1,1.1-1.9,2.2-1.9h141.9
				c1.1,0,2.1,0.8,2.2,1.9l1.5,13.2c0.1,0.6-0.1,1.2-0.5,1.7C412,524.5,411.4,524.8,410.8,524.8z M268.3,520.4h140l-1-8.8h-138
				L268.3,520.4z"/>
		</g>
		<g>
			<polygon class="st6" points="343,524.3 363.9,516 343,507.6 259.4,507.6 257.9,524.3 			"/>
			<path d="M343,526.5h-85.2c-0.6,0-1.2-0.3-1.6-0.7c-0.4-0.5-0.6-1.1-0.6-1.7l1.5-16.7c0.1-1.1,1-2,2.2-2l83.7,0c0,0,0,0,0,0
				c0.3,0,0.6,0.1,0.8,0.2l20.9,8.3c0.8,0.3,1.4,1.1,1.4,2c0,0.9-0.5,1.7-1.4,2l-20.9,8.4C343.6,526.5,343.3,526.5,343,526.5z
				 M260.3,522.1h82.3L358,516l-15.4-6.2l-81.2,0L260.3,522.1z"/>
		</g>
		<g>
			<path d="M339.2,516c0,2.7-2.2,4.8-4.8,4.9h0c-2.7,0-4.8-2.2-4.8-4.9c0-2.7,2.2-4.8,4.8-4.9h0C337,511.1,339.2,513.3,339.2,516z"
				/>
			<path d="M334.3,511.1c2.7,0,4.8,2.2,4.8,4.9s-2.2,4.8-4.8,4.9h0c-2.7,0-4.8-2.2-4.8-4.9S331.6,511.1,334.3,511.1L334.3,511.1
				 M334.3,508.4L334.3,508.4L334.3,508.4c-4.2,0-7.6,3.4-7.6,7.6c0,4.2,3.4,7.6,7.6,7.6h0c4.2,0,7.6-3.4,7.6-7.6
				C341.9,511.8,338.5,508.4,334.3,508.4L334.3,508.4L334.3,508.4z"/>
		</g>
	</g>
	<g id="Coup_00000138549690746474687450000011861506397028108696_">
		<polygon class="st6" points="307.1,298.4 299.6,344.2 364.2,358.8 372.9,303.2 		"/>
		<rect x="319.8" y="312" width="4.4" height="67.5"/>
		<rect x="306.8" y="312" width="4.4" height="64.3"/>
		<rect x="332.7" y="312" width="4.4" height="68"/>
		<rect x="345.7" y="312" width="4.4" height="67.5"/>
		<rect x="358.6" y="312" width="4.4" height="63.7"/>
	</g>
	<g id="Casque_00000041275217409460144100000004932219444362665615_">
		<g>
			<path class="st6" d="M288.7,255.3c28.8-59.2,114-18.5,96.5,18.2l-85.1-11.4L288.7,255.3z"/>
			<path d="M385.2,275.7c-0.1,0-0.2,0-0.3,0l-85.1-11.4c-0.3,0-0.6-0.1-0.8-0.3l-11.4-6.8c-1-0.6-1.3-1.8-0.8-2.8
				c7.7-15.8,20-26,35.5-29.7c6.7-1.6,13.9-1.9,21.2-0.9c6.8,0.9,13.6,3,19.8,6c9.8,4.7,17.6,11.5,22.1,19.1
				c2.4,4.1,3.8,8.3,4.2,12.5c0.4,4.5-0.4,9-2.5,13.2C386.8,275.2,386,275.7,385.2,275.7z M300.8,260l83,11.1
				c3.2-8.1,0.6-15.4-2.2-20.1c-4.1-6.9-11.3-13-20.3-17.4c-12.2-5.9-26.1-7.6-38.1-4.7c-6.7,1.6-12.9,4.6-18.2,8.8
				c-5.4,4.3-9.9,9.9-13.5,16.8L300.8,260z"/>
		</g>
		<g>
			<path class="st6" d="M328.2,314.7c-19.4,17.5-39.2,35.9-51.9,27.2c19.8-22.9,27.4-49.6,23.8-79.8c29.9-37.3,74.2-19,85.1,11.4
				c-9,29.3-3.8,48.4,5.9,61.2C378.3,357.4,338.3,358,328.2,314.7z"/>
			<path d="M364.4,352.2c-1.6,0-3.2-0.1-4.7-0.3c-7.5-1.1-14.5-4.7-20.2-10.4c-5.7-5.7-9.9-13.3-12.5-22.7
				c-9,8.1-18.3,16.4-26.8,21.7c-4.9,3-9.2,4.9-13.1,5.6c-4.6,0.8-8.6,0.1-12.1-2.3c-0.5-0.4-0.9-0.9-0.9-1.5
				c-0.1-0.6,0.1-1.2,0.5-1.7c9.6-11.1,16.4-23.3,20.2-36.4c3.8-12.9,4.8-26.9,3.1-41.7c-0.1-0.6,0.1-1.2,0.5-1.6
				c7-8.7,15-14.8,23.9-18.4c8.1-3.2,16.6-4.1,25.2-2.7c8.9,1.5,17.3,5.4,24.5,11.4c7.1,5.9,12.4,13.4,15.4,21.7
				c0.2,0.4,0.2,0.9,0,1.4c-4.1,13.3-5.5,25.4-4,35.9c1.2,8.8,4.4,16.6,9.6,23.3c0.5,0.7,0.6,1.6,0.2,2.4
				c-3.2,5.8-8.1,10.3-14.2,13.2C374.3,351.1,369.4,352.2,364.4,352.2z M328.2,312.6c0.2,0,0.4,0,0.7,0.1c0.7,0.2,1.3,0.8,1.5,1.6
				c2.4,10.2,6.5,18.3,12.3,24.1c5,5.1,11.1,8.2,17.7,9.1c5.7,0.8,11.5-0.1,16.7-2.6c4.8-2.3,8.7-5.8,11.5-10.2
				c-11.3-15.6-13.2-36.2-5.6-61.2c-2.7-7.3-7.5-13.9-13.8-19.1c-6.6-5.5-14.3-9-22.4-10.4c-16.4-2.7-32.1,3.9-44.3,18.7
				c1.7,15.1,0.5,29.4-3.3,42.6c-3.8,12.8-10.3,24.9-19.3,35.9c11.2,4.2,28.6-11.5,45.5-26.7l1.5-1.4
				C327.1,312.8,327.6,312.6,328.2,312.6z"/>
		</g>
		<g>
			<polygon class="st6" points="297.1,287.3 292.3,309.6 341.1,306.4 			"/>
			<path d="M292.3,311.8c-0.6,0-1.2-0.3-1.7-0.8c-0.4-0.5-0.6-1.2-0.5-1.9l4.7-22.3c0.1-0.6,0.6-1.2,1.1-1.5
				c0.6-0.3,1.3-0.3,1.9-0.1l44,19.1c0.9,0.4,1.5,1.4,1.3,2.4c-0.2,1-1,1.7-2,1.8l-48.7,3.2C292.4,311.8,292.4,311.8,292.3,311.8z
				 M298.6,290.4l-3.6,16.8l36.8-2.4L298.6,290.4z"/>
		</g>
		<g>
			<circle cx="336.6" cy="304.6" r="4.9"/>
			<path d="M336.6,299.7c2.7,0,4.9,2.2,4.9,4.9c0,2.7-2.2,4.9-4.9,4.9c-2.7,0-4.9-2.2-4.9-4.9C331.7,301.9,333.9,299.7,336.6,299.7
				 M336.6,297c-4.2,0-7.6,3.4-7.6,7.6c0,4.2,3.4,7.6,7.6,7.6s7.6-3.4,7.6-7.6C344.2,300.4,340.8,297,336.6,297L336.6,297z"/>
		</g>
	</g>
</g>
</svg>
