<?xml version="1.0" encoding="utf-8"?>
<!-- Generator: Adobe Illustrator 27.8.1, SVG Export Plug-In . SVG Version: 6.00 Build 0)  -->
<svg version="1.1" id="Calque_1" xmlns="http://www.w3.org/2000/svg" xmlns:xlink="http://www.w3.org/1999/xlink" x="0px" y="0px"
	 viewBox="0 0 14381 8601.6" style="enable-background:new 0 0 14381 8601.6;" xml:space="preserve">
<polygon points="8904.6,3186.3 8904.6,1709.3 5476.3,1709.3 5476.3,3186.3 5507.9,3186.3 5507.9,1740.9 8873,1740.9 8873,3186.3 "/>
<path d="M8873,4692c0,99.5-6.1,192.4-18.3,276.2c-11.5,80-29,154.7-51.9,221.5c-42.2,123.9-103.7,226.2-187.7,312.9
	c-158.1,163.1-377,248.7-608.9,339.4c-138.7,54.3-282,110.3-422.7,186.3c-154.5,83.4-283.3,179.5-393.1,293.5
	c-109.9-113.9-238.7-210-393.1-293.5c-140.6-76-284.1-132.2-422.7-186.3c-231.7-90.7-450.8-176.4-608.9-339.4
	c-84.1-86.7-145.5-189-187.7-312.9c-22.8-66.9-40.3-141.4-51.9-221.5c-12.1-83.8-18.3-176.7-18.3-276.2v-727.3
	c-11.3-6.4-21.8-13.2-31.6-20.5v747.9c0,101,6.2,195.4,18.6,280.7c11.8,82,29.8,158.4,53.2,227.2
	c43.8,128.4,107.6,234.6,194.9,324.7c162.9,168,384.9,254.8,620,346.9c137.8,53.9,280.2,109.7,419.2,184.8
	c156.8,84.8,286.6,182.7,396.7,299.5l11.4,12.2l11.4-12.2c110-116.8,239.7-214.7,396.7-299.5c139-75.1,281.5-130.9,419.2-184.8
	c235.1-92,457.1-178.9,620-346.9c87.3-90.1,151.1-196.3,194.9-324.7c23.5-68.8,41.4-145.2,53.2-227.2
	c12.3-85.3,18.6-179.6,18.6-280.7v-747.9c-9.8,7.3-20.3,14.2-31.6,20.5V4692H8873z"/>
<path d="M5852.7,1426.9h333.2h45.1h339.6h63.4h333.2h41.9h355.7h50.3h333.2h21.7h366.3h60h333.2h37.8h410.3v-290h-448.1v176.6
	h-333.2v-176.6h-448v176.6h-333.2v-176.6h-448v176.6H6634v-176.6h-448v176.6h-333.2v-176.6h-448.1v290H5823H5852.7z M8669.4,1214.5
	h169v134.9h-169V1214.5z M7888.1,1214.5h169v134.9h-169V1214.5z M7106.8,1214.5h169v134.9h-169V1214.5z M6325.5,1214.5h169v134.9
	h-169V1214.5z M5713.3,1349.3h-169.1v-134.8h169L5713.3,1349.3L5713.3,1349.3z"/>
<polygon points="8904.5,1668.7 8977.9,1467.5 5404.7,1467.5 5478.1,1668.7 "/>
<path d="M6533.5,2566.1l-100.6,25.2c33.9-193.4,231.5-489.7,458.8-634.1c-289.8,102.7-522.7,420.2-556.8,812.4
	C6418.3,2663.4,6484.3,2595.9,6533.5,2566.1z"/>
<path d="M6836.7,2538.5l-87.8,22c4.2-189,112.2-458,260.5-602.7c-219.3,147.8-316.4,415.7-346,758.6
	C6736,2623.5,6793.6,2564.5,6836.7,2538.5z"/>
<path d="M6960,2665.8c60.4-77.1,108.3-126,144-147.7l-72.9,18.3c-13.4-150.2,2.8-370.8,72.5-553.1
	C6980.9,2198.5,6984.7,2381,6960,2665.8z"/>
<path d="M7942.3,2591.3l-100.6-25.2c49.3,29.8,115.3,97.3,198.5,203.5c-34-392.2-266.9-709.6-556.8-812.4
	C7710.6,2101.5,7908.4,2397.9,7942.3,2591.3z"/>
<path d="M7626.4,2560.5l-87.8-22c43,26.1,100.8,85.1,173.5,177.9c-29.7-342.9-126.7-610.8-346-758.6
	C7514.2,2102.5,7622.2,2371.5,7626.4,2560.5z"/>
<path d="M7271.1,2518c35.7,21.6,83.6,70.7,144,147.7c-24.7-284.6-20.8-467.1-143.7-682.5c69.9,182.2,86.1,402.8,72.5,553.1
	L7271.1,2518z"/>
<path d="M8873,3416.3h-454.2c-31.8,56.1-65.6,108.6-101,156.7h555.1h31.6h280.6c123.6-32.9,180.4-101.7,180.4-156.7h-461H8873z"/>
<path d="M8873,3616.1h-587.9c-37.8,47.5-77.9,91.3-119.4,130.4c-9.6,9-19.2,17.8-29,26.4H8873h31.6h80.8
	c123.6-32.9,180.4-101.7,180.4-156.7h-261.3H8873z"/>
<path d="M5507.9,3573H6063c-35.2-48.2-69.1-100.7-101-156.7h-454.1h-31.6h-461c0,55.1,56.9,123.9,180.4,156.7h280.6H5507.9z"/>
<path d="M5507.9,3772.8h736.4c-9.8-8.6-19.4-17.4-29-26.4c-41.6-39.2-81.7-82.9-119.4-130.4h-587.9h-31.6H5215
	c0,55.1,56.9,123.9,180.4,156.7h80.8H5507.9z"/>
<path d="M8267.9,3217.9c-71.5,147.5-145.3,269.5-245,357.3l380.9-694.6l52.6,66.1l-16.5-115.3c-0.4-2.6-9.4-64.4-39.8-156.8
	c-17.8-54.1-39.2-107.6-63.8-159c-30.7-64.4-66.4-125.7-106.1-182.5c-101.3-144.7-228.7-260-378.8-342.8
	c-88.9-49.1-186.9-87.1-291.1-112.8c-114.2-28.2-238.6-42.5-369.8-42.5s-255.6,14.3-369.8,42.5c-104.2,25.8-202.1,63.8-291.2,112.8
	c-150,82.7-277.4,198.1-378.8,342.8c-39.7,56.8-75.4,118.1-106.1,182.5c-24.6,51.4-46,104.9-63.8,159
	c-30.4,92.5-39.5,154.3-39.8,156.8l-16.5,115.3l53.6-67.4l383.1,698.8c-101.4-87.9-176-211.1-248.2-360.2H4816.9
	c0,55.1,56.9,123.9,180.4,156.7h981.8c147,268.6,322,428.7,514.3,521.9c-3.4,11.4-6.8,22.7-10.4,34c-40.7-19.4-79.9-41.5-117.4-65.7
	c-23.5-15.3-46.5-31.6-69-49h-864.6c0,28.6,15.4,61,47.5,90c0.2,0.2,0.4,0.4,0.6,0.5c0.9,0.9,1.9,1.7,2.9,2.5
	c0.2,0.2,0.5,0.4,0.7,0.6c1,0.9,2.1,1.8,3.2,2.6c0.1,0.1,0.3,0.2,0.4,0.4c2.5,2.1,5,4,7.7,6c0.2,0.1,0.3,0.2,0.5,0.4
	c1.2,0.9,2.3,1.7,3.5,2.6c0.3,0.2,0.5,0.4,0.8,0.6c1.1,0.8,2.3,1.6,3.4,2.4c0.2,0.2,0.5,0.3,0.8,0.5c1.4,0.9,2.8,1.9,4.1,2.8
	c13.6,9,29.1,17.4,46.5,24.9c17.5,7.6,36.8,14.3,58.1,20h856.9c-24.8,73.8-53,146-84.5,215.6l-1.7,3.7l-0.2,4
	c-1.3,28.4,9.1,55.2,28.4,73.4c8.3,7.9,18,14,28.6,18.3c0.2,0.3,0.3,0.7,0.5,1c42,75.9,76.2,143.6,104.3,207
	c29.5,66.5,53.6,130.8,73.6,196.6c2.5,8.1,8.1,14.8,15.5,18.8c3.1,1.6,6.2,2.7,9.6,3.2v35c-4.1,2.5-7.1,6.9-7.6,12l-11,120.1
	c-0.4,4.4,1.1,8.8,4,12c3,3.3,7.2,5.1,11.6,5.1h1c-8,20.3-17.6,43.1-29,68c-2,4.2-2,9.2,0.1,13.3c2,4.2,5.7,7.3,10.3,8.5
	c6.1,1.6,13,3.3,20.4,4.9v98.8l12.1,2.9c103,24.5,208.6,41.5,315.6,51c-1-0.1-1.9-0.2-2.9-0.3c-9.1,68.7-30.9,123.5-65.1,162
	c-46.4,52.2-105.5,63.2-146.9,63.2c-51.8,0-107.5-16.8-156.6-47.4c-49.7-30.9-89.6-73.9-112.1-121.2
	c-18.5-38.6-25.2-78.7-20.1-119.1c5.7-45.7,26.5-90.9,61.8-134.6l22.5-27.8l-30.4-18.9c-60.6-37.7-122.5-106.4-184.1-204.4
	c-56.5-89.8-113.4-205.5-169.3-343.9l-18.6-46l-33.9,36.3c-36.8,39.5-68.6,90.6-94.5,152c-24.1,57.2-43.3,124.2-57.2,198.9
	c-13.2,70.9-21.6,149.3-25.1,233c-3.4,80.7-2.1,166.4,3.8,254.7l1.7,25.4l25.2,3.8l257.4,38.5c30.1,25.8,43.9,51,61.1,82.4
	c13.3,24.4,28.4,52,53.4,82.7c28.1,34.5,64.4,67.5,110.9,100.7c116.6,83.1,305.5,172.8,577.6,274.5c54.2,23.3,69.4,36.2,109.7,70.5
	c8.9,7.5,18.9,16.1,30.6,25.9l20.1,16.8l20.1-16.8c11.7-9.8,21.8-18.3,30.6-25.9c40.3-34.2,55.5-47.2,109.7-70.5
	c272.1-101.6,461-191.4,577.6-274.5c46.6-33.2,82.8-66.1,110.9-100.7c24.9-30.6,40-58.2,53.4-82.7c17.2-31.4,31-56.7,61.1-82.4
	l257.4-38.5l25.2-3.8l1.7-25.4c5.8-88.3,7.1-174.1,3.8-254.7c-3.5-83.8-11.9-162.2-25.1-233c-13.9-74.7-33.2-141.6-57.2-198.9
	c-25.9-61.4-57.6-112.5-94.5-152l-33.9-36.3l-18.6,46c-55.9,138.4-112.8,254.1-169.3,343.9c-61.6,97.9-123.6,166.7-184.1,204.4
	l-30.4,18.9l22.5,27.8c35.3,43.6,56.1,88.9,61.8,134.6c5,40.5-1.7,80.5-20.1,119.1c-22.5,47.2-62.4,90.2-112.1,121.2
	c-49.2,30.6-104.8,47.4-156.6,47.4c-41.5,0-100.5-11-146.9-63.2c-34.6-38.9-56.6-94.5-65.4-164.2c103.1-9.9,208.2-26.1,314.4-48.4
	l12.5-2.7v-99.2c7.5-1.7,14.3-3.4,20.4-4.9c4.5-1.2,8.3-4.3,10.3-8.5c2-4.2,2-9.1,0.1-13.3c-13.9-30.1-25-57-33.9-80.5h5.8
	c4.5,0,8.8-1.9,11.7-5.3c3-3.4,4.4-7.8,3.9-12.3l-11-95.1c-0.6-5-3.6-9.4-7.7-11.7c0,0,0.1,0,0.1,0.1v-47.6c3.3-0.6,6.5-1.6,9.6-3.2
	c7.5-3.9,13-10.7,15.5-18.8c20-65.7,44.1-130.1,73.6-196.6c28.1-63.4,62.3-131.1,104.3-207c0.2-0.3,0.3-0.6,0.5-1
	c5.3-2.1,10.4-4.7,15.2-7.7c4.8-3.1,9.3-6.5,13.4-10.5c19.2-18.4,29.6-45.1,28.4-73.4l-0.2-4l-1.7-3.7
	c-31.5-69.5-59.7-141.6-84.5-215.6h855.2c42.7-11.4,77.5-27,104.6-44.9c1.4-0.9,2.8-1.9,4.1-2.8c0.2-0.2,0.5-0.4,0.7-0.5
	c1.2-0.8,2.3-1.6,3.4-2.4c0.3-0.2,0.5-0.4,0.8-0.6c1.2-0.9,2.4-1.7,3.5-2.6c0.2-0.1,0.3-0.2,0.5-0.3c2.7-2,5.2-4,7.7-6
	c0.1-0.1,0.3-0.2,0.4-0.3c1.1-0.9,2.1-1.8,3.2-2.7c0.2-0.2,0.5-0.4,0.7-0.6c1-0.8,2-1.7,2.9-2.6l0.6-0.5c1.1-1,2.2-2,3.3-3l0,0
	c15-14.1,26.1-29,33.4-43.7c7.3-14.8,10.9-29.4,10.9-43.2h-864.5c-22.5,17.4-45.6,33.8-69,49c-36.9,24-75.8,45.8-115.9,65
	c-3.6-11.3-7-22.6-10.4-34c191.8-93.3,366.3-253.4,512.9-521.2h981.9c123.6-32.9,180.4-101.7,180.4-156.7L8267.9,3217.9
	L8267.9,3217.9z M7476.5,5350.7c2.2,1.9,4.4,3.7,6.7,5.4C7481,5354.4,7478.8,5352.6,7476.5,5350.7c-3-2.5-5.8-5-8.7-7.7
	C7470.8,5345.7,7473.7,5348.2,7476.5,5350.7z M5972.4,2835.8c0,0,138.8-969.4,1218.1-969.4s1218.1,969.4,1218.1,969.4
	c-56.8-71.5-113.7-107.1-170.7-107.1c-57,0-114.3,35.7-171.6,107.1c-57-71.8-114.1-107.7-171.1-107.7c-57,0-114.1,35.9-171.2,107.7
	c-57-71.9-114.1-107.8-171.1-107.8c-39.5,0-78.9,17.2-118.3,51.5c-11.1-6.5-22.5-12.7-34.4-18.4c-44.6-21.5-94-36.3-142.7-42.8
	c-52.8-7.1-104.1-4.9-152.8,6.6c-53.2,12.5-101.1,35.8-142.5,68.9c-44.5-43.8-89.1-65.7-133.6-65.7c-57,0-114.1,35.9-171.1,107.8
	c-57-71.8-114.2-107.7-171.2-107.7s-114.1,35.9-171.1,107.7c-57.3-71.5-114.6-107.1-171.6-107.1
	C6086.1,2728.8,6029.1,2764.5,5972.4,2835.8z M7793.3,3495.4c-0.7-0.2-1.5-0.5-2.2-0.7l0,0c-17.1-5.3-38.3-5.5-59.9-1.4
	c-0.9-0.1-1.7-0.1-2.6-0.1c-1.9,0-3.8,0.2-5.6,0.5c-34.6,6.2-71.5,11-110,14.1c-0.1-0.2-0.3-0.4-0.4-0.6
	c-8.7-11.4-16.6-23.1-23.8-35.3l143.1-595.6l16.5-20.7c26.2-33,52.3-57.7,77.7-73.7c23.6-14.9,46.1-22.1,68.8-22.1
	s45.2,7.2,68.8,22.1c25.4,16,51.5,40.8,77.7,73.6l23.2,29.3l-22.1-27.8l-251.4,637.7C7791.9,3495,7792.7,3495.1,7793.3,3495.4z
	 M7191.3,3859.1L7191.3,3859.1c93.1,0,159.8-11.6,205.4-46.2h0.9v-0.7c44.1-34,68.3-89.8,77.1-178.2c5.1-1.5,10.2-3.2,15.2-4.9
	v350.3c-149.9,46.9-294.4,137.1-298.5,139.6l0,0l0,0c-3.9-2.5-148.6-92.9-298.7-139.7v-392.8c3.9-1.6,8-3.4,12-5.3
	C6912,3804.8,6990,3859.1,7191.3,3859.1z M6935.9,3564.6c3.2-1.9,6.3-3.8,9.6-5.7c15.7-9.7,31.8-20.9,48.1-33.1v252
	c-0.9-0.9-1.7-1.7-2.6-2.6C6954.9,3738,6937.7,3672.6,6935.9,3564.6z M7025.1,3800.2v-299.1c20.3-16.4,41-34.1,61.5-52.2v370.8
	C7062.2,3815.3,7042,3808.9,7025.1,3800.2z M7118.2,3824.2v-403.3c6.7-6,13.3-12,19.9-18c10.6,36.8,24.5,70,41.6,99.1v325.3
	C7157.1,3827.2,7136.6,3826.1,7118.2,3824.2z M7211.3,3827.3v-280.1c5.5,6.6,11.3,12.9,17.2,18.9c13.8,13.9,28.6,26.1,44.3,36.4
	v220.8C7254.5,3825.5,7234,3826.8,7211.3,3827.3z M7304.4,3818.2v-198c19.6,9.2,40.3,15.8,61.5,19.5v155.8
	C7349.4,3805.6,7329.2,3813,7304.4,3818.2z M7397.6,3768.7v-125.5c3.6,0.2,7.1,0.2,10.7,0.2c12.2,0,24.4-0.9,36.4-2.8
	c-0.8,0.1-1.6,0.2-2.4,0.4C7435.2,3700.1,7420.7,3741.2,7397.6,3768.7z M7378.5,3609.7c-47.5-6.7-91.6-29.5-127.5-65.8
	c-41.8-42.1-71.6-100.6-88.6-173.7c-1.3-5.4-5.3-9.8-10.7-11.4c-1.6-0.5-3.2-0.7-4.7-0.7c-3.8,0-7.6,1.4-10.6,4l-11,9.9
	c-121.5,109.7-246.9,222.9-327.3,192.6c54.7-66.5,96.4-138.4,124.6-214.3l242.3-15.9c10.1,12.6,25.5,20.7,42.8,20.7
	c30.2,0,54.8-24.6,54.8-54.7c0-30.2-24.6-54.7-54.8-54.7c-16.5,0-31.3,7.3-41.4,18.9l-203.8-88.5c5.8-56.8,5.3-115.8-1.4-176.6
	c87.9-106.8,201-154.7,319-134.9c58.2,9.8,114,35.6,161.2,74.9c45.4,37.8,79.7,85.3,99.6,137.6c-54.4,180.3-40.9,328.6,40.3,440.7
	c-19.9,31.6-48.5,56.9-82.9,73.4C7461,3609.1,7419.6,3615.6,7378.5,3609.7z M6854.8,2959.2l75.2,45.1c5.9,54.5,6.7,107.5,2.2,158.6
	l-2.9-1.3c-4.3-1.9-9.3-1.8-13.5,0.5c-4.2,2.2-7.2,6.1-8.2,10.8l-33.9,160.6c-1,4.8,0.3,9.9,3.6,13.6c2.8,3.2,6.6,5.1,10.8,5.4l0,0
	c0.4,0,0.8,0.1,1.2,0.1c-0.4,0-0.8,0-1.2,0c-16.3,41.4-36.9,81.3-61.7,119.9L6679,2859.4l2.9-3.7c26.2-33,52.3-57.7,77.7-73.7
	c23.6-14.9,46.1-22.1,68.8-22.1c35.3,0,72.1,18.5,109.8,55c-17.7,16.8-34.1,35.6-49,56.3c-14.9,20.7-28.4,43.3-40.3,67.8
	C6845.1,2946.1,6847.7,2955,6854.8,2959.2z M6802.2,3507.5c7.3-10.1,14.4-20.3,21.1-30.7c-7.2,11.2-14.8,22.1-22.8,33
	c-24.2-1.7-47.7-3.8-70.3-6.4c-1.2-0.1-2.5-0.2-3.7-0.2c-1.1,0-2.1,0.1-3.2,0.2c-22-2.7-43.3-5.8-64-9.5c-1.9-0.3-3.8-0.5-5.5-0.5
	c-0.9,0-1.7,0.1-2.6,0.1c-21.6-4.1-42.8-3.9-59.9,1.4l-252.1-639.2l0,0c26.2-33,52.3-57.7,77.7-73.6c23.6-14.9,46.1-22.1,68.8-22.1
	c22.7,0,45.2,7.2,68.8,22.1c25.4,16,51.5,40.8,77.7,73.7l19,23.8L6802.2,3507.5z M6800.5,3509.8c-0.1,0.1-0.2,0.3-0.3,0.4l0,0
	C6800.4,3510,6800.5,3509.9,6800.5,3509.8z M6726.7,3535.4c16.8,1.9,33.6,3.6,50.4,4.8c-5.1,6.3-10.4,12.6-15.7,18.9
	c-3,3.5-4.2,7.9-3.8,12.3c0.5,4.4,3.1,8.5,6.7,11c24.7,16.9,54,22.4,86.9,16.5c3.2-0.6,6.4-1.3,9.7-2.1v449
	c0,78.5-67.1,158.4-67.1,158.4s-67.2-80-67.2-158.4L6726.7,3535.4L6726.7,3535.4z M7589.5,2988.3c-2.7-30.4-12.8-60.6-30.2-89.9
	c-22.3-37.4-55.8-72-97.1-101c7.3-5.9,14.6-11.3,21.8-15.8c23.6-14.9,46.1-22.1,68.8-22.1s45.2,7.2,68.8,22.1
	c25.4,16,51.5,40.8,77.7,73.7l4.2,5.3l-136.2,566.7c-11.2-27.6-19-57-23.3-88c-10.4-75-0.8-161.6,28.5-257.2
	C7586.6,3052.1,7592.3,3020.4,7589.5,2988.3z M7521.3,3615.1c33.3-17.8,61.3-42.8,82.1-73.5c17.6-1.4,34.9-3.1,52.2-5.1
	c0,0,0,432.7,0,511.2c0,78.5-67.2,158.4-67.2,158.4s-67.1-80-67.1-158.4V3615.1L7521.3,3615.1z M7614.7,3523.2
	c0.1-0.2,0.2-0.4,0.2-0.6c0,0,0,0,0,0.1C7614.8,3522.9,7614.8,3523.1,7614.7,3523.2z M7615.3,3521.6L7615.3,3521.6
	c-0.1,0.2-0.1,0.3-0.1,0.5C7615.2,3521.9,7615.2,3521.8,7615.3,3521.6z M7615.1,3511.8L7615.1,3511.8
	C7615.2,3511.8,7615.2,3511.8,7615.1,3511.8C7615.2,3511.8,7615.2,3511.8,7615.1,3511.8z M7615.5,3520.9c0-0.1,0.1-0.2,0.1-0.4v0.1
	C7615.5,3520.7,7615.5,3520.8,7615.5,3520.9z M6423,3624.8l-423.5-772.3c25.3-31.2,50.4-54.9,74.9-70.3c23.5-14.8,46-21.9,68.7-21.9
	c46.8,0,96.2,32.1,147,95.3l24.8,30.8l1.9-2.4l255.8,648.8c-7.4,51.6-16.3,102.6-26.5,152.9C6501,3669.8,6460.2,3649.4,6423,3624.8z
	 M6519.6,3801.5c-1.3,5-2.6,10.1-3.8,15c0.7-2.8,1.4-5.4,2.1-8.2C6518.5,3806,6519,3803.8,6519.6,3801.5z M6514.8,3820.3
	c-0.2,0.9-0.5,1.9-0.7,2.8c0-0.2,0.1-0.3,0.1-0.5C6514.4,3821.7,6514.6,3821.1,6514.8,3820.3z M6513.9,3823.5
	c-1.3,4.7-2.5,9.4-3.8,14.1c0.9-3.4,1.8-6.8,2.8-10.2C6513.2,3826.2,6513.6,3824.8,6513.9,3823.5z M6508.6,3843.7
	c-0.2,0.7-0.4,1.3-0.5,2c0-0.1,0.1-0.3,0.1-0.4C6508.3,3844.6,6508.4,3844.1,6508.6,3843.7z M7707.5,5066.7
	c-187.9,38.7-372.2,57.7-547.9,56.6c-164.6-1.1-327.5-20-484.4-56.3v-67.2c163.5,32.5,498.3,73.6,514.2,75.6
	c0.6,0.1,1.3,0.1,1.9,0.1c0.6,0,1.3,0,1.9-0.1c15.9-2,350.7-43.1,514.2-75.6L7707.5,5066.7L7707.5,5066.7z M7191.3,5043.8
	c-30.2-3.8-402.8-50-542-81.7c10.4-23.4,19-44.7,26.3-63.8h578.3c2,0,4-0.4,5.9-1.1l28.3-11.4h414.1c8,22,18.2,47.6,30.9,76.3
	C7594.1,4993.8,7221.5,5040.1,7191.3,5043.8z M7410.2,4807.5l-42.1-16.9h348.7l7.3,63.6h-357.2l43.3-17.4c6-2.4,10-8.2,9.9-14.7
	C7420.2,4815.7,7416.2,4809.9,7410.2,4807.5z M7707.5,4707.3v51.9H7289l-29.2-11.6c-1.9-0.8-3.8-1.1-5.8-1.1l0,0l-578.8,0.3v-39.4
	c84.7-29,171.9-75,259.6-136.7c83-58.4,169.2-133.2,256.6-222.4c87.3,89.1,173.6,163.8,256.6,222.4c87.9,62,175.6,108.1,260.7,137.1
	C7708.2,4707.5,7707.8,4707.4,7707.5,4707.3z M7223,4777.9h28l110.9,44.3l-110.9,44.5h-27.6c13.7-10,22.7-26.1,22.7-44.3
	C7246,4804.2,7236.9,4787.9,7223,4777.9z M7159.7,4777.9c-13.9,10-23,26.2-23,44.5c0,18.2,9,34.3,22.7,44.3h-501.2l8.1-88.6
	L7159.7,4777.9z M7914.4,4273.1c-82.1,148.1-139.1,273.8-180.5,409.6c-86.9-27.5-177-73.9-267.8-138c-86.5-60.9-176.7-140-268.2-235
	c-0.2-0.3-0.5-0.6-0.8-0.9c-1.6-1.5-3.6-2.3-5.5-2.3h-0.3c-0.1,0-0.2,0-0.3,0c-2,0.1-3.9,0.8-5.4,2.3c-0.3,0.3-0.6,0.6-0.8,0.9
	c-91.5,95-181.7,174.1-268.2,235c-90.8,64-180.8,110.4-267.8,138c-41.4-135.8-98.4-261.5-180.5-409.6
	c93.7-147.1,248.1-614.2,185.7-748.2c13.7,2.5,27.4,4.6,41.4,6.6c-0.1,1.1-0.2,2.2-0.2,3.3v511.2c0,38,12.6,79.7,37.7,124.2
	c18.1,32,36.1,53.7,36.9,54.6c6,7.1,14.9,11.3,24.2,11.3c4.6,0,9.2-1.1,13.3-3c4.1-2,7.8-4.7,10.9-8.3c0.8-0.9,18.9-22.6,36.9-54.6
	c25-44.3,37.6-86.1,37.6-124.2v-33.4c137.2,44.6,269,125.2,281.2,132.8c5.1,3.5,11.3,5.3,17.6,5.3c6.3,0,12.3-1.9,17.5-5.2
	c12.1-7.5,143.8-88.1,281-132.7v35c0,38,12.6,79.7,37.6,124.2c18,32,36.1,53.7,36.9,54.6c6,7.1,14.9,11.3,24.2,11.3
	c9.4,0,18.2-4.1,24.2-11.3c0.8-0.9,18.9-22.6,36.9-54.6c25-44.3,37.7-86.1,37.7-124.2v-511.2c0-1.7-0.1-3.4-0.4-4.9
	c14-2,27.9-4.1,41.8-6.6C7666.2,3658.9,7820.8,4126,7914.4,4273.1z M7862.9,3801.2c0.2,0.9,0.4,1.8,0.7,2.7
	C7863.4,3803,7863.1,3802.1,7862.9,3801.2L7862.9,3801.2z M7863.9,3805c0.3,1.2,0.6,2.5,1,3.7c0.3,1.3,0.7,2.6,1,3.9
	C7865.2,3810,7864.5,3807.4,7863.9,3805z M7868.1,3821.3c0.1,0.4,0.2,0.8,0.3,1.2c0.1,0.4,0.2,0.7,0.3,1
	C7868.5,3822.7,7868.3,3822,7868.1,3821.3z M7873.7,3842c0.3,1.1,0.6,2.1,0.9,3.2c0,0.2,0.1,0.3,0.1,0.4c0.7,2.4,1.3,4.8,2,7.2
	C7875.7,3849.2,7874.6,3845.6,7873.7,3842z M7836.5,3685.3c-10.3-50.1-19-101-26.5-152.4l255.3-647.5l0.8,1l24.8-30.8
	c26.4-32.8,52.6-57.4,78.1-73.3c23.7-14.8,46.3-22,69-22s45.2,7.2,68.7,21.9c25,15.7,50.7,40,76.4,72.1c-0.2-0.2-0.3-0.4-0.5-0.7
	l-421.8,769.4C7923,3648.1,7882,3669,7836.5,3685.3z"/>
<path d="M7422.6,3975.4c30.2,0,54.7-24.6,54.7-54.7c0-30.1-24.6-54.7-54.7-54.7c-30.2,0-54.7,24.6-54.7,54.7
	C7368,3950.8,7392.4,3975.4,7422.6,3975.4z M7422.6,3955.7c-3.1,0-5.9-0.4-8.8-1.1c-2.3-0.6-4.3-1.4-6.4-2.4
	c-2.6-1.2-4.9-2.8-7.1-4.5c-1.3-1.1-2.5-2.3-3.7-3.5c-1.1-1.3-2.2-2.6-3.2-3.9c1,1.4,2,2.8,3.2,3.9c1.1,1.3,2.4,2.4,3.7,3.5
	c2.2,1.8,4.5,3.4,7.1,4.5c2.1,1,4.1,1.8,6.4,2.4C7416.7,3955.4,7419.6,3955.7,7422.6,3955.7c8.5,0,16.2-3,22.2-8
	C7438.8,3952.7,7431,3955.7,7422.6,3955.7z M7391.3,3936.4c0.3,0.7,0.7,1.3,1.1,2C7392,3937.7,7391.6,3937,7391.3,3936.4z
	 M7396.7,3897.2c6.4-7,15.6-11.4,25.9-11.4c10.3,0,19.5,4.4,25.9,11.4c0.8,0.8,1.5,1.7,2.2,2.6c-0.7-0.9-1.4-1.8-2.2-2.6
	c-6.4-7-15.6-11.4-25.9-11.4C7412.4,3885.7,7403.1,3890.1,7396.7,3897.2c-1.1,1.3-2.2,2.6-3.2,3.9
	C7394.5,3899.8,7395.6,3898.4,7396.7,3897.2z M7392.7,3902.6c-0.6,1-1.1,2-1.6,3C7391.5,3904.6,7392.1,3903.6,7392.7,3902.6z"/>
<path d="M6960,3975.4c30.2,0,54.7-24.6,54.7-54.7c0-30.1-24.6-54.7-54.7-54.7c-30.2,0-54.7,24.6-54.7,54.7
	C6905.4,3950.8,6929.8,3975.4,6960,3975.4z M6985.9,3944.2c-1.1,1.3-2.4,2.4-3.7,3.5c-2.2,1.8-4.5,3.4-7.1,4.5
	c-2.1,1-4.1,1.8-6.4,2.4c-2.8,0.7-5.7,1.1-8.8,1.1c-8.5,0-16.2-3-22.2-8c6,5,13.8,8,22.2,8c3.1,0,5.9-0.4,8.8-1.1
	c2.3-0.6,4.3-1.4,6.4-2.4c2.6-1.2,4.9-2.8,7.1-4.5C6983.5,3946.7,6984.8,3945.5,6985.9,3944.2s2.2-2.6,3.2-3.9
	C6988.1,3941.7,6987.1,3943,6985.9,3944.2z M6990.2,3938.3c0.4-0.6,0.7-1.3,1.1-2C6990.9,3937,6990.6,3937.7,6990.2,3938.3z
	 M6991.5,3905.5c-0.5-1-1-2-1.6-3C6990.5,3903.6,6991,3904.6,6991.5,3905.5z M6934.1,3897.2c6.4-7,15.6-11.4,25.9-11.4
	c10.3,0,19.5,4.4,25.9,11.4c1.1,1.3,2.2,2.6,3.2,3.9c-1-1.4-2-2.8-3.2-3.9c-6.4-7-15.6-11.4-25.9-11.4
	C6949.8,3885.7,6940.5,3890.1,6934.1,3897.2c-0.8,0.8-1.5,1.7-2.2,2.6C6932.7,3898.9,6933.4,3898,6934.1,3897.2z"/>
<path d="M7191.2,4044.9L7191.2,4044.9c30.2-0.1,54.7-24.6,54.7-54.7c0-30.1-24.5-54.6-54.6-54.7l0,0l0,0h-0.1
	c-30.1,0.1-54.6,24.6-54.6,54.7C7136.6,4020.3,7161.2,4044.8,7191.2,4044.9z M7179.2,4023c1.1,0.4,2.2,0.7,3.3,1
	C7181.4,4023.7,7180.3,4023.4,7179.2,4023z M7189.3,4025.1c0.1,0,0.1,0,0.2,0C7189.5,4025.1,7189.4,4025.1,7189.3,4025.1z
	 M7189.5,3955.3c-0.1,0-0.1,0-0.2,0C7189.4,3955.3,7189.5,3955.3,7189.5,3955.3z M7160.6,3973.5c-2.7,4.9-4.1,10.6-4.1,16.6
	c0,7.2,2.2,13.9,5.9,19.5c0.6,0.9,1.3,1.9,2,2.7c0.7,0.8,1.5,1.7,2.3,2.5c-0.8-0.8-1.6-1.6-2.3-2.5c-0.7-0.9-1.4-1.8-2-2.7
	c-3.8-5.5-5.9-12.3-5.9-19.5C7156.4,3984.2,7157.9,3978.5,7160.6,3973.5z M7166,3966c-0.4,0.4-0.8,0.9-1.2,1.3
	C7165.2,3966.9,7165.6,3966.5,7166,3966z M7163.6,3969c-0.2,0.2-0.3,0.5-0.5,0.7C7163.3,3969.4,7163.4,3969.2,7163.6,3969z
	 M7161.8,3971.6c-0.3,0.5-0.7,1.1-1,1.6C7161.1,3972.7,7161.5,3972.1,7161.8,3971.6z"/>
<path d="M7585.7,4058c30.2,0,54.7-24.6,54.7-54.7c0-30.1-24.6-54.7-54.7-54.7c-30.2,0-54.7,24.6-54.7,54.7
	C7531,4033.5,7555.5,4058,7585.7,4058z M7557.7,4024.3c0.7,0.9,1.4,1.8,2.2,2.6C7559,4026,7558.2,4025.2,7557.7,4024.3z
	 M7585.7,4038.3c-9.7,0-18.5-3.9-24.8-10.3C7567.2,4034.3,7576,4038.3,7585.7,4038.3s18.5-3.9,24.8-10.3
	C7604,4034.3,7595.4,4038.3,7585.7,4038.3z M7611.5,4026.8c0.8-0.8,1.5-1.7,2.2-2.6C7613,4025.2,7612.3,4026,7611.5,4026.8z
	 M7615.6,4021.4c0.6-1,1.1-2,1.6-3C7616.7,4019.5,7616.2,4020.5,7615.6,4021.4z M7615.9,3985.7c0.4,0.6,0.7,1.3,1.1,2
	C7616.6,3987,7616.3,3986.4,7615.9,3985.7z M7611.5,3979.8c0.8,0.8,1.5,1.7,2.2,2.6C7613,3981.4,7612.3,3980.6,7611.5,3979.8
	c-0.8-0.9-1.6-1.6-2.4-2.4C7610,3978.2,7610.9,3979,7611.5,3979.8z M7600.8,3971.8c1.5,0.7,3,1.6,4.4,2.6c0.9,0.6,1.9,1.3,2.7,2
	c-0.9-0.7-1.8-1.4-2.7-2C7603.8,3973.3,7602.4,3972.6,7600.8,3971.8c-1-0.5-2.1-0.9-3.2-1.3c-1-0.4-2-0.7-3-0.9c1,0.3,2,0.6,3,0.9
	C7598.7,3970.9,7599.8,3971.3,7600.8,3971.8z M7585.7,3968.3c2.9,0,5.7,0.4,8.4,1C7591.3,3968.7,7588.5,3968.3,7585.7,3968.3
	c-8.5,0-16.2,3-22.2,8C7569.5,3971.4,7577.2,3968.3,7585.7,3968.3z M7562.1,3977.4c-0.8,0.8-1.6,1.6-2.4,2.4
	C7560.5,3979,7561.3,3978.2,7562.1,3977.4z"/>
<path d="M7589.1,3926c30.2,0,54.7-24.6,54.7-54.7c0-30.2-24.6-54.7-54.7-54.7c-30.2,0-54.7,24.6-54.7,54.7
	C7534.4,3901.4,7558.9,3926,7589.1,3926z M7560.1,3890.8c-0.8-1.3-1.6-2.6-2.3-3.8C7558.5,3888.3,7559.2,3889.5,7560.1,3890.8
	c0.6,0.9,1.3,1.9,2,2.7C7561.4,3892.6,7560.7,3891.7,7560.1,3890.8z M7556.3,3883.2c-0.4-1-0.7-2-0.9-3
	C7555.6,3881.4,7555.9,3882.3,7556.3,3883.2c0.3,0.9,0.7,1.8,1.1,2.7C7557,3885,7556.6,3884.1,7556.3,3883.2z M7566.8,3898.2
	c0.9,0.7,1.8,1.4,2.7,2c1.3,0.8,2.6,1.6,3.8,2.3c-1.4-0.7-2.7-1.4-3.8-2.3C7568.6,3899.6,7567.7,3898.9,7566.8,3898.2z
	 M7604.2,3902.8c-2.1,1-4.1,1.8-6.4,2.4c-2.8,0.7-5.7,1.1-8.8,1.1c-2.9,0-5.7-0.4-8.4-1c2.7,0.7,5.4,1,8.4,1c3.1,0,5.9-0.4,8.8-1.1
	C7600.1,3904.6,7602.3,3903.8,7604.2,3902.8c1.5-0.7,3-1.6,4.4-2.6c0.7-0.5,1.4-1,2.1-1.6c-0.7,0.5-1.4,1.1-2.1,1.6
	C7607.3,3901.2,7605.8,3902,7604.2,3902.8z M7574.4,3903c0.7,0.3,1.5,0.7,2.2,0.9C7575.9,3903.7,7575.1,3903.3,7574.4,3903z
	 M7577.6,3904.3c0.8,0.3,1.5,0.5,2.3,0.7C7579.2,3904.7,7578.4,3904.6,7577.6,3904.3z M7555.2,3862.5c0.3-1.1,0.6-2.2,1-3.3
	c0.4-1.1,0.8-2.1,1.3-3.2c0.7-1.5,1.6-3,2.6-4.4c0.4-0.6,0.8-1.1,1.2-1.7c-0.4,0.5-0.8,1.1-1.2,1.7c-1,1.4-1.8,2.9-2.6,4.4
	c-0.5,1-0.9,2.1-1.3,3.2C7555.9,3860.2,7555.5,3861.3,7555.2,3862.5c-0.7,2.8-1.1,5.7-1.1,8.8c0,2.9,0.4,5.7,1,8.4
	c-0.7-2.7-1-5.4-1-8.4C7554.1,3868.2,7554.5,3865.3,7555.2,3862.5z"/>
<path d="M7592.4,3782.8c30.2,0,54.7-24.6,54.7-54.7c0-30.2-24.6-54.7-54.7-54.7c-30.2,0-54.7,24.6-54.7,54.7
	C7537.6,3758.2,7562.2,3782.8,7592.4,3782.8z M7565.4,3750.3c0.7,0.9,1.5,1.7,2.2,2.5C7566.8,3751.9,7566,3751.1,7565.4,3750.3z
	 M7567.6,3752.8C7567.6,3752.8,7567.7,3752.8,7567.6,3752.8C7567.7,3752.8,7567.6,3752.8,7567.6,3752.8z M7569.5,3754.4
	c1.1,0.9,2.2,1.8,3.4,2.6C7571.7,3756.2,7570.5,3755.3,7569.5,3754.4z M7578.8,3760.3c-1.6-0.7-3.1-1.5-4.5-2.3
	C7575.7,3758.8,7577.2,3759.6,7578.8,3760.3c1.6,0.7,3.2,1.2,4.8,1.7C7581.9,3761.4,7580.4,3760.9,7578.8,3760.3z M7588.8,3762.8
	c1.2,0.1,2.4,0.2,3.6,0.2l0,0C7591.2,3763,7590,3762.9,7588.8,3762.8z M7601.2,3761.9c1.7-0.4,3.3-1,4.8-1.7
	C7604.4,3760.9,7602.9,3761.4,7601.2,3761.9z M7622.3,3746.1c-3,4.8-7,8.9-11.7,11.7c-1,0.6-2,1.1-3,1.6c1-0.5,2-1,3-1.6
	C7615.3,3755,7619.4,3751,7622.3,3746.1c0.6-1,1.1-2,1.6-3C7623.5,3744.2,7622.9,3745.2,7622.3,3746.1z M7624.7,3741.6
	c0.7-1.6,1.2-3.2,1.7-4.8C7625.9,3738.4,7625.3,3740,7624.7,3741.6z M7618.3,3704.5c1.5,1.7,2.9,3.5,4,5.4c2.4,3.8,3.9,8.2,4.6,12.8
	c0.3,1.8,0.4,3.6,0.4,5.3l0,0c0-1.8-0.1-3.6-0.4-5.3c-0.7-4.6-2.4-9-4.6-12.8C7621.1,3707.9,7619.8,3706.2,7618.3,3704.5
	c-1.1-1.3-2.4-2.4-3.7-3.5c-0.7-0.6-1.5-1.2-2.3-1.8c0.8,0.6,1.6,1.1,2.3,1.8C7616,3702,7617.2,3703.2,7618.3,3704.5z M7608.6,3697
	c0.7,0.4,1.3,0.7,2,1.1C7609.9,3697.7,7609.3,3697.3,7608.6,3697z M7561.2,3712.1c0.4-0.8,0.8-1.5,1.3-2.3
	C7562,3710.6,7561.6,3711.3,7561.2,3712.1z M7562.5,3746.1c-0.4-0.7-0.8-1.3-1.1-2C7561.7,3744.9,7562.1,3745.4,7562.5,3746.1z"/>
<path d="M6796.7,3946.8c-30.2,0-54.7,24.6-54.7,54.7c0,30.1,24.6,54.7,54.7,54.7c30.2,0,54.7-24.6,54.7-54.7
	C6851.4,3971.4,6826.9,3946.8,6796.7,3946.8z M6770.8,3978c6.4-7,15.6-11.4,25.9-11.4s19.5,4.4,25.9,11.4c0.8,0.8,1.5,1.7,2.2,2.6
	c-0.7-0.9-1.4-1.8-2.2-2.6c-6.4-7-15.6-11.4-25.9-11.4C6786.4,3966.5,6777.1,3971,6770.8,3978c-1.1,1.3-2.2,2.6-3.2,3.9
	C6768.7,3980.5,6769.6,3979.3,6770.8,3978z M6766.8,3983.4c-0.6,1-1.1,2-1.6,3C6765.6,3985.4,6766.2,3984.4,6766.8,3983.4z
	 M6766.5,4019.1c-0.4-0.6-0.7-1.3-1.1-2C6765.7,4017.9,6766.1,4018.5,6766.5,4019.1z M6796.7,4036.5c-3.1,0-5.9-0.4-8.8-1.1
	c-1.1-0.3-2.2-0.6-3.3-1c-1.1-0.4-2.1-0.8-3.2-1.3c-2.6-1.2-4.9-2.8-7.1-4.5c-1.3-1.1-2.5-2.3-3.7-3.5c-1.1-1.3-2.2-2.6-3.2-3.9
	c1,1.4,2,2.8,3.2,3.9c1.1,1.3,2.4,2.4,3.7,3.5c2.2,1.8,4.5,3.4,7.1,4.5c1,0.5,2.1,0.9,3.2,1.3c1.1,0.4,2.2,0.7,3.3,1
	C6790.8,4036.1,6793.6,4036.5,6796.7,4036.5c8.5,0,16.2-3,22.2-8C6812.9,4033.6,6805.2,4036.5,6796.7,4036.5z M6820.2,4027.4
	c0.8-0.8,1.6-1.6,2.4-2.4C6821.9,4025.9,6821.1,4026.6,6820.2,4027.4z"/>
<path d="M6793.2,3924.2c30.2,0,54.7-24.6,54.7-54.7c0-30.2-24.6-54.7-54.7-54.7c-30.2,0-54.7,24.6-54.7,54.7
	C6738.5,3899.6,6763,3924.2,6793.2,3924.2z M6784.5,3903.4c-2.3-0.6-4.3-1.4-6.4-2.4c-1.5-0.7-3-1.6-4.4-2.6c1.4,1,2.9,1.8,4.4,2.6
	C6780.1,3902,6782.3,3902.8,6784.5,3903.4c2.8,0.7,5.7,1.1,8.8,1.1c2.8,0,5.4-0.3,8-0.9c-2.6,0.6-5.2,0.9-8,0.9
	C6790.2,3904.5,6787.3,3904.1,6784.5,3903.4z M6802.7,3903.2c0.7-0.2,1.4-0.4,2-0.6C6804.1,3902.8,6803.4,3903,6802.7,3903.2z
	 M6805.9,3902.1c0.6-0.2,1.2-0.5,1.8-0.8C6807.2,3901.6,6806.5,3901.8,6805.9,3902.1z M6809.2,3900.6c0.9-0.5,1.9-1,2.7-1.6
	C6811,3899.6,6810.1,3900.1,6809.2,3900.6z M6824.8,3854.3c1,2.1,1.8,4.1,2.4,6.4c0.7,2.8,1.1,5.7,1.1,8.8c0,2.8-0.3,5.4-0.9,8
	c0.6-2.6,0.9-5.2,0.9-8c0-3.1-0.4-5.9-1.1-8.8C6826.5,3858.5,6825.7,3856.3,6824.8,3854.3c-0.7-1.5-1.6-3-2.6-4.4
	C6823.1,3851.3,6824,3852.7,6824.8,3854.3z M6822.8,3888.1c0.6-0.9,1.1-1.8,1.6-2.7C6823.9,3886.3,6823.3,3887.2,6822.8,3888.1z
	 M6825.1,3883.9c0.3-0.6,0.5-1.2,0.8-1.8C6825.6,3882.7,6825.3,3883.3,6825.1,3883.9z M6826.3,3881c0.2-0.7,0.4-1.3,0.6-2
	C6826.7,3879.6,6826.5,3880.3,6826.3,3881z"/>
<path d="M6790,3781c30.2,0,54.7-24.6,54.7-54.7c0-30.2-24.6-54.7-54.7-54.7c-30.2,0-54.7,24.6-54.7,54.7
	C6735.2,3756.4,6759.8,3781,6790,3781z M6762.9,3748.5c0.7,0.9,1.5,1.7,2.2,2.5C6764.4,3750.1,6763.6,3749.3,6762.9,3748.5z
	 M6765.2,3751L6765.2,3751L6765.2,3751z M6767,3752.7c0.8,0.7,1.6,1.3,2.4,1.9C6768.6,3753.9,6767.8,3753.3,6767,3752.7z
	 M6772.6,3756.6c0.5,0.3,0.9,0.5,1.4,0.7C6773.6,3757.1,6773.1,3756.9,6772.6,3756.6z M6790,3761.2L6790,3761.2
	c1.2,0,2.4-0.1,3.6-0.2C6792.3,3761.1,6791.2,3761.2,6790,3761.2z M6798.7,3760.2c1.7-0.4,3.3-1,4.8-1.7
	C6802,3759.2,6800.3,3759.7,6798.7,3760.2z M6805.1,3757.8c0.8-0.4,1.7-0.9,2.5-1.3C6806.8,3756.9,6806,3757.4,6805.1,3757.8z
	 M6814.1,3751.6c0.6-0.6,1.2-1.2,1.7-1.8C6815.2,3750.4,6814.7,3751,6814.1,3751.6z M6809.5,3755.2c1-0.7,2-1.4,2.9-2.2
	C6811.5,3753.8,6810.5,3754.5,6809.5,3755.2z M6815.2,3702.1c-0.4-0.4-0.8-0.8-1.2-1.2C6814.5,3701.2,6814.8,3701.6,6815.2,3702.1z
	 M6765.3,3701.4C6765.2,3701.4,6765.2,3701.4,6765.3,3701.4C6765.2,3701.4,6765.2,3701.4,6765.3,3701.4z M6762.9,3704
	c-5,6-8,13.8-8,22.2c0,3.1,0.4,5.9,1.1,8.8c0.3,1.1,0.6,2.2,1,3.3c0.4,1.1,0.8,2.1,1.3,3.2c1,2.1,2.2,3.9,3.5,5.7
	c-1.4-1.8-2.6-3.8-3.5-5.7c-0.5-1-0.9-2.1-1.3-3.2c-0.4-1.1-0.7-2.2-1-3.3c-0.7-2.8-1.1-5.7-1.1-8.8
	C6754.9,3717.8,6758,3710,6762.9,3704z"/>
</svg>
